<svg width="947" height="774" viewBox="0 0 947 774" fill="none" xmlns="http://www.w3.org/2000/svg">
<g opacity="0.25">
<ellipse cx="521.5" cy="91" rx="92" ry="91" fill="#1B262C"/>
<path d="M641.5 527.5H400V271.5C404.667 240 434.9 177 518.5 177C602.1 177 635.333 240 641.5 271.5V527.5Z" fill="#1B262C"/>
<ellipse cx="121.5" cy="91" rx="92" ry="91" fill="#1B262C"/>
<path d="M241.5 527.5H0V271.5C4.66667 240 34.9 177 118.5 177C202.1 177 235.333 240 241.5 271.5V527.5Z" fill="#1B262C"/>
<ellipse cx="321.5" cy="191" rx="92" ry="91" fill="#0F4C75"/>
<path d="M441.5 627.5H200V371.5C204.667 340 234.9 277 318.5 277C402.1 277 435.333 340 441.5 371.5V627.5Z" fill="#0F4C75"/>
<ellipse cx="921.5" cy="91" rx="92" ry="91" fill="#1B262C"/>
<path d="M1041.5 527.5H800V271.5C804.667 240 834.9 177 918.5 177C1002.1 177 1035.33 240 1041.5 271.5V527.5Z" fill="#1B262C"/>
<ellipse cx="721.5" cy="191" rx="92" ry="91" fill="#0F4C75"/>
<path d="M841.5 627.5H600V371.5C604.667 340 634.9 277 718.5 277C802.1 277 835.333 340 841.5 371.5V627.5Z" fill="#0F4C75"/>
<ellipse cx="521.5" cy="291" rx="92" ry="91" fill="#3282B8"/>
<path d="M641.5 727.5H400V471.5C404.667 440 434.9 377 518.5 377C602.1 377 635.333 440 641.5 471.5V727.5Z" fill="#3282B8"/>
<ellipse cx="921.5" cy="291" rx="92" ry="91" fill="#3282B8"/>
<path d="M1041.5 727.5H800V471.5C804.667 440 834.9 377 918.5 377C1002.1 377 1035.33 440 1041.5 471.5V727.5Z" fill="#3282B8"/>
<ellipse cx="721.5" cy="391" rx="92" ry="91" fill="#BBE1FA"/>
<path d="M841.5 827.5H600V571.5C604.667 540 634.9 477 718.5 477C802.1 477 835.333 540 841.5 571.5V827.5Z" fill="#BBE1FA"/>
</g>
</svg>
