<svg width="1920" height="1080" viewBox="0 0 1920 1080" fill="none" xmlns="http://www.w3.org/2000/svg">
<g clip-path="url(#clip0)">
<path d="M652.5 727C1060 523 158.5 78 11 10L-34 33V991L11 1142L743 1104.5C577 1046.67 326.5 890.2 652.5 727Z" fill="#3282B8"/>
<path d="M1220.5 569.5C1114.5 941.5 1867 1083.5 2008.5 1198.5L2336.5 -241L69 -81.5C469 -90.3333 1386.8 -54 1858 162C2447 432 1326.5 197.5 1220.5 569.5Z" fill="#3282B8"/>
<path d="M1123 964C361.5 1110.5 467.5 -103.5 467.5 -126C541.333 67.5 736.8 397.8 928 171C1119.2 -55.8 2059 628.5 2505 999L1628 1575C1713.5 1322.5 1732.2 846.8 1123 964Z" fill="#BBE1FA" fill-opacity="0.5"/>
</g>
<defs>
<clipPath id="clip0">
<rect width="1920" height="1080" fill="white"/>
</clipPath>
</defs>
</svg>
