<svg width="1920" height="1080" viewBox="0 0 1920 1080" fill="none" xmlns="http://www.w3.org/2000/svg">
<g clip-path="url(#clip0)">
<path d="M1054 1363.5C799.5 942.5 62 617.5 -60.5 547C50.93 605.5 224.432 638.3 27 301.5C-170.432 -35.3 863.403 -184.167 1405 -216.5C1138.83 -76 825.9 285.7 1703.5 608.5C2581.1 931.3 1940.5 1158.33 1510.5 1231.5C1443.17 1415.83 1257.6 1700.3 1054 1363.5Z" fill="#3282B8"/>
<path d="M990.5 153C1470.5 500.6 638.5 941.833 162.5 1119C45.3334 1169.67 6.90015 1221.3 790.5 1022.5C1574.1 823.7 2386.67 309.667 2695 77.5C1926.83 -42.1667 510.5 -194.6 990.5 153Z" fill="#BBE1FA" fill-opacity="0.5"/>
</g>
<defs>
<clipPath id="clip0">
<rect width="1920" height="1080" fill="white"/>
</clipPath>
</defs>
</svg>
