<svg width="662" height="146" viewBox="0 0 662 146" fill="none" xmlns="http://www.w3.org/2000/svg">
<path d="M47.2 10.6C55.8667 10.6 63.2 12.0667 69.2 15C75.3333 17.9333 78.4 21.6667 78.4 26.2C78.4 28.2 77.8667 29.9333 76.8 31.4C75.8667 32.8667 74.4 33.6 72.4 33.6C70.5333 33.6 66.4 32.1333 60 29.2C53.6 26.1333 47.7333 24.6 42.4 24.6C37.2 24.6 31.8 26.2667 26.2 29.6C20.6 32.9333 17.8 37 17.8 41.8C17.8 48.3333 21.2 53.1333 28 56.2C33.0667 58.4667 40.3333 60.5333 49.8 62.4C59.2667 64.1333 67 67.8 73 73.4C79 78.8667 82 87.2 82 98.4C82 115.467 76.8667 128.067 66.6 136.2C60.8667 140.733 52.7333 143 42.2 143C31.8 143 21.4 140.133 11 134.4C4.19999 130.8 0.799988 127.2 0.799988 123.6C0.799988 122.267 1.33332 120.8 2.39999 119.2C3.59999 117.6 5.19999 116.267 7.19999 115.2C9.19999 114.133 11 114 12.6 114.8C14.3333 115.467 17.0667 116.733 20.8 118.6C24.5333 120.467 27.2667 121.733 29 122.4C34.6 124.533 39.8667 125.6 44.8 125.6C49.7333 125.6 54.4667 123.2 59 118.4C63.6667 113.467 66 107.467 66 100.4C66 91.0667 61.3333 84.5333 52 80.8C47.4667 78.9333 42.3333 77.5333 36.6 76.6C24.7333 74.4667 15.8 70.9333 9.79999 66C3.79999 60.9333 0.799988 53.3333 0.799988 43.2C0.799988 33.0667 5.13332 25.1333 13.8 19.4C22.4667 13.5333 33.6 10.6 47.2 10.6ZM128.797 49.8C138.397 49.8 146.264 54.4 152.397 63.6C158.664 72.8 161.797 83.8667 161.797 96.8C161.797 109.6 158.597 120.533 152.197 129.6C145.93 138.667 137.53 143.2 126.997 143.2C116.597 143.2 108.197 138.6 101.797 129.4C95.3969 120.067 92.1969 109.733 92.1969 98.4C92.1969 83.8667 95.1302 72.2667 100.997 63.6C107.264 54.4 116.53 49.8 128.797 49.8ZM126.397 66.2C120.797 66.2 116.197 69.1333 112.597 75C108.997 80.8667 107.197 87.0667 107.197 93.6C107.197 103.733 109.197 111.467 113.197 116.8C117.197 122.133 121.73 124.8 126.797 124.8C135.864 124.8 141.664 120.867 144.197 113C145.264 109.267 145.797 104.6 145.797 99C145.797 77.1333 139.33 66.2 126.397 66.2ZM171.261 96.2C171.261 87.2667 173.594 79.1333 178.261 71.8C183.061 64.4667 189.128 59 196.461 55.4C203.794 51.6667 210.928 49.8 217.861 49.8C224.794 49.8 230.328 50.6667 234.461 52.4C238.728 54 240.861 56.2 240.861 59C240.861 61.6667 240.061 64.4 238.461 67.2C236.994 69.8667 234.994 71.2 232.461 71.2C231.528 71.2 228.928 70.4667 224.661 69C220.528 67.4 217.861 66.6 216.661 66.6C208.928 66.6 202.328 69.4667 196.861 75.2C191.394 80.8 188.661 88.2667 188.661 97.6C188.661 106.933 190.128 113.933 193.061 118.6C196.128 123.133 201.328 125.4 208.661 125.4C211.594 125.4 216.594 123.733 223.661 120.4C230.861 116.933 235.328 115.2 237.061 115.2C238.794 115.2 240.194 115.733 241.261 116.8C242.328 117.867 242.861 119.2 242.861 120.8C242.861 124 240.794 127.4 236.661 131C232.661 134.467 227.661 137.4 221.661 139.8C215.661 142.067 210.261 143.2 205.461 143.2C194.794 143.2 186.394 139 180.261 130.6C174.261 122.2 171.261 110.733 171.261 96.2ZM273.2 121.4L273.4 135.4C273.4 137.933 272.4 140.067 270.4 141.8C268.4 143.4 266.267 144.2 264 144.2C260.667 144.2 258.933 142.533 258.8 139.2C257.067 96.6667 256.2 73.1333 256.2 68.6C256.2 64.0667 256.4 58.5333 256.8 52C257.067 49.6 258.6 48.4 261.4 48.4C268.467 48.4 272.467 51.2667 273.4 57C273.8 59.9333 274 62.2667 274 64L273.2 76.6V121.4ZM352.127 49.6C357.993 49.6 360.927 54.6 360.927 64.6C360.927 65.6667 360.927 66.8 360.927 68L360.527 82C360.393 86.4 360.327 90.7333 360.327 95L363.327 140.2C363.327 143.533 359.927 145.2 353.127 145.2C352.727 145.2 351.727 145.2 350.127 145.2C348.66 145.2 347.593 144.6 346.927 143.4C346.393 142.2 346.327 140.733 346.727 139C347.26 137.267 347.127 135.333 346.327 133.2C340.193 139.733 332.06 143 321.927 143C303.127 143 293.727 128.467 293.727 99.4C293.727 83.2667 296.727 71.0667 302.727 62.8C308.86 54.5333 317.593 50.4 328.927 50.4C334.26 50.4 339.593 51.3333 344.927 53.2C346.66 50.8 349.06 49.6 352.127 49.6ZM331.327 67.8C323.727 67.8 318.06 70 314.327 74.4C310.593 78.8 308.727 86.8667 308.727 98.6C308.727 118.333 314.06 128.2 324.727 128.2C327.527 128.2 330.593 126.933 333.927 124.4C337.393 121.867 339.793 119 341.127 115.8C343.66 108.6 344.927 100.733 344.927 92.2C344.927 83.6667 343.86 77.4667 341.727 73.6C339.727 69.7333 336.26 67.8 331.327 67.8ZM374.047 13.6C374.447 8.53336 375.247 5.2667 376.447 3.80003C377.78 2.20004 379.847 1.40004 382.647 1.40004C388.38 1.40004 391.247 3.73337 391.247 8.40003C391.247 12 390.914 21.4 390.247 36.6C389.714 51.8 389.447 65.4 389.447 77.4C389.447 89.4 389.914 99.0667 390.847 106.4C392.447 119.2 394.714 125.6 397.647 125.6C400.58 125.6 402.78 123.533 404.247 119.4C404.914 117.8 405.98 116.4 407.447 115.2C408.914 113.867 410.78 113.2 413.047 113.2C417.714 113.2 420.047 117.133 420.047 125C420.047 129.267 417.714 133.533 413.047 137.8C408.514 141.933 403.98 144 399.447 144C394.914 144 391.247 143.267 388.447 141.8C385.78 140.2 383.58 137.867 381.847 134.8C380.247 131.733 378.914 128.8 377.847 126C376.914 123.067 376.247 119.533 375.847 115.4C375.047 108.733 374.447 98.0667 374.047 83.4C373.78 68.6 373.647 54.5333 373.647 41.2C373.647 27.7333 373.78 18.5333 374.047 13.6ZM456.572 50.4C463.639 50.4 470.372 52.4667 476.772 56.6C483.172 60.7333 486.372 65.8667 486.372 72C486.372 78 483.772 83.8667 478.572 89.6C473.372 95.2 466.439 98.6 457.772 99.8C454.039 100.333 448.439 100.6 440.972 100.6C442.439 111.933 445.305 119.4 449.572 123C450.905 124.467 452.705 125.2 454.972 125.2C463.239 125.2 470.172 122.6 475.772 117.4C481.372 112.067 485.372 109.4 487.772 109.4C488.839 109.4 490.439 110.4 492.572 112.4C494.705 114.4 495.772 116.267 495.772 118C495.772 121.467 491.572 126.467 483.172 133C479.439 136.067 474.905 138.667 469.572 140.8C464.372 142.8 459.505 143.8 454.972 143.8C443.372 143.8 434.839 136.333 429.372 121.4C425.905 112.2 424.172 102.067 424.172 91C424.172 79.9333 426.772 70.4 431.972 62.4C437.172 54.4 445.372 50.4 456.572 50.4ZM457.572 64.2C452.505 64.2 448.172 67.0667 444.572 72.8C443.239 74.8 441.972 79.3333 440.772 86.4C459.439 86.4 468.772 81.8 468.772 72.6C468.772 67 465.039 64.2 457.572 64.2ZM515.059 136.8L512.859 55.6C512.859 53.0667 513.726 51 515.459 49.4C517.193 47.8 518.926 47 520.659 47C524.926 47 527.393 48.8 528.059 52.4C528.593 56 528.859 59.7333 528.859 63.6C536.059 54.1333 545.059 49.4 555.859 49.4C572.393 49.4 580.659 68.2667 580.659 106C580.659 109.467 580.659 114.733 580.659 121.8C580.659 128.733 580.259 133.8 579.459 137C578.526 141 575.659 143 570.859 143C567.659 143 566.059 140.867 566.059 136.6L566.259 125.4C566.259 109.933 565.726 99.4 564.659 93.8C563.726 88.0667 562.793 83.5333 561.859 80.2C559.593 73 555.926 69.4 550.859 69.4C544.193 69.4 539.526 71.8 536.859 76.6C533.926 81.8 532.193 87.9333 531.659 95C530.726 107.4 530.259 120.533 530.259 134.4C530.259 137.067 529.259 139.2 527.259 140.8C525.259 142.4 522.859 143.2 520.059 143.2C516.726 143.2 515.059 141.067 515.059 136.8ZM602.889 49.6L612.889 49.8C615.156 49.8 616.422 49.7333 616.689 49.6V8.60003C616.822 6.33337 617.956 4.40004 620.089 2.80003C622.222 1.20003 624.222 0.400024 626.089 0.400024C627.956 0.400024 629.422 1.00002 630.489 2.20003C631.689 3.40003 632.222 5.2667 632.089 7.80003C631.956 10.3333 631.889 24.2 631.889 49.4L655.289 48.6C659.289 48.6 661.289 50.9333 661.289 55.6C661.289 59.0667 660.222 61.6667 658.089 63.4C656.089 65.1333 653.889 66.0667 651.489 66.2C649.222 66.3333 646.956 66.4 644.689 66.4L632.489 66.2C632.489 71.6667 633.022 82.4667 634.089 98.6C635.289 114.733 636.222 125.2 636.889 130C637.556 134.667 637.689 137.733 637.289 139.2C636.889 140.533 636.156 141.467 635.089 142C633.356 142.8 631.022 143.2 628.089 143.2C625.156 143.2 623.422 141.6 622.889 138.4C620.222 120.933 618.422 96.9333 617.489 66.4C616.289 66.5333 611.689 66.6 603.689 66.6C595.689 66.6 591.689 64.2667 591.689 59.6C591.689 52.9333 595.422 49.6 602.889 49.6Z" fill="#044F81"/>
<path d="M260.502 40.3925C260.566 40.5017 260.419 40.7035 260.377 40.8055C260.377 40.9727 260.723 41.0032 260.878 41.0032C261.061 41.0032 261.638 41.1015 261.687 41.3209C261.701 41.3834 261.51 41.441 261.542 41.441C261.683 41.441 261.873 41.4941 262.011 41.4684C262.329 41.4094 262.677 41.399 262.999 41.399C263.183 41.399 263.297 41.3339 263.475 41.29C263.656 41.2453 263.922 41.237 264.101 41.1821C264.356 41.1035 264.597 41.0691 264.864 41.0636C265.183 41.0569 265.544 40.8448 265.861 40.8371C266.48 40.822 267.289 40.8502 267.823 40.52C267.998 40.4125 268.112 40.3829 268.186 40.369C268.427 40.3237 268.678 40.2474 268.926 40.2121C269.077 40.1904 269.355 40.1702 269.499 40.1123C269.619 40.0646 269.712 39.9363 269.786 39.8255C269.875 39.6922 269.999 39.5569 270.107 39.4027C270.198 39.3277 270.579 38.9071 270.571 39.0252C270.565 39.1228 270.385 39.3463 270.33 39.4178C270.25 39.5202 270.3 39.448 270.058 39.8255C269.888 40.0338 269.816 40.3539 269.716 40.6181C269.716 40.6843 269.691 40.7235 269.696 40.7918C269.844 40.4925 270.496 39.7006 270.722 39.4329C270.842 39.2913 271.022 39.1696 271.153 39.039C271.246 38.9454 271.263 38.8377 271.434 38.8377L271.437 38.8368C271.515 38.8113 271.829 38.7093 272.168 38.8065L272.174 38.8065C272.249 38.8066 272.455 38.8068 272.444 38.7082C272.439 38.6632 272.353 38.678 272.338 38.6176C272.334 38.6005 272.353 38.5014 272.368 38.4817C272.387 38.4213 272.429 38.1443 272.429 37.9079C272.429 37.5525 272.341 37.1228 272.413 36.9567C272.519 36.7151 272.64 36.4585 272.871 36.2071C272.972 36.1511 273.079 36.0711 273.168 35.9904C273.286 35.8847 273.537 35.8205 273.621 35.6884C273.731 35.5159 273.742 35.3562 273.787 35.0996C273.863 34.9939 273.918 34.8776 273.94 34.8154C273.993 34.6611 274.154 34.6054 274.24 34.4654C274.306 34.3602 274.4 34.1465 274.527 34.1182C274.646 34.0919 274.7 34.1699 274.678 34.2691C274.65 34.3971 274.447 34.5386 274.376 34.6466C274.296 34.7692 274.221 34.8705 274.158 34.9958C274.102 35.1091 274.116 35.2051 274.089 35.326C274.195 35.7488 274.248 35.5555 274.286 35.4921C274.344 35.3923 274.423 35.0998 274.525 35.0427C274.7 34.944 274.834 34.7806 275.009 34.6852C275.118 34.6257 275.224 34.4854 275.314 34.3954C275.391 34.3188 275.477 34.237 275.541 34.1508C275.608 34.0618 275.52 34.0263 275.449 33.9755C275.346 33.9009 275.067 33.8028 275.231 33.6388C275.308 33.5618 275.499 33.5086 275.604 33.4809C276.138 33.3404 275.359 33.1341 275.909 33.1051C276.022 33.0992 277.09 33.2848 276.974 33.2591C275.948 32.7156 276.896 32.9375 276.307 32.7715C276.354 32.6412 276.913 32.4573 276.868 32.3969C276.741 32.3238 276.657 32.263 276.535 32.1855C276.377 32.0845 276.21 31.9317 276.052 31.8231C274.995 31.3249 276.354 30.887 275.931 30.419C275.834 30.4033 275.796 30.3586 275.675 30.268C275.554 30.1774 275.419 30.1647 275.358 30.0717C275.278 29.9495 275.183 29.9411 275.131 29.7999C275.103 29.7238 275.094 29.6118 275.056 29.5432C275.002 29.446 275.026 29.3922 275.026 29.2413C274.98 29.1054 274.997 29.0295 274.875 28.9544C274.733 28.867 274.492 28.8859 274.331 28.9242C274.109 28.9772 274.053 28.9999 274.106 28.8789C274.167 28.7429 274.383 28.6318 274.452 28.5014C274.512 28.3875 274.576 28.385 274.648 28.2749C274.71 28.18 274.795 28.0196 274.844 27.9126C274.909 27.7735 275.026 27.5065 275.026 27.3388C275.026 27.2477 275.029 27.143 275.026 27.0519C275.022 26.9694 274.995 26.8479 274.98 26.7651C274.893 26.6271 274.784 26.6497 274.693 26.5386C274.552 26.3657 274.13 26.2631 273.923 26.1762C273.606 26.0427 273.969 26.2819 274.027 26.5386C271.991 25.678 273.987 26.629 274.106 26.7047C274.235 26.7864 274.718 26.8418 274.62 27.0368C274.557 27.1626 274.393 27.333 274.316 27.4294C274.273 27.4832 274.169 27.4991 274.106 27.5351C274.027 27.5806 274.077 27.5542 273.999 27.5955C274.106 27.3539 274.165 27.3237 274.18 27.2808C274.256 27.067 274.338 27.0519 274.331 26.9915C274.315 26.8525 273.606 26.7633 273.425 26.6594C273.354 26.6336 273.29 26.6265 273.229 26.5839C273.174 26.5458 273.028 26.5012 272.972 26.486C272.788 26.4357 272.651 26.3357 272.474 26.2656C272.346 26.2151 272.236 26.0298 272.172 25.9497C272.088 25.8452 272.296 25.6174 272.323 25.4968C272.356 25.3494 272.461 25.3831 272.534 25.2703C272.568 25.2186 272.661 25.1608 272.7 25.1042C272.747 25.0373 272.854 24.9356 272.912 24.8777C273.091 24.6983 273.252 24.657 273.38 24.4399C273.398 24.4086 273.566 24.2167 273.455 24.1983C273.322 24.1761 273.063 24.0171 272.951 23.9699C272.746 23.8835 272.338 23.7755 272.157 23.6245C271.9 23.383 271.839 23.2744 271.776 23.0055C271.748 22.8875 271.803 22.6999 271.776 22.5799C271.747 22.4499 271.746 22.3251 271.746 22.1877C271.746 22.0562 271.715 21.9447 271.715 21.8147C271.715 21.7634 271.744 21.5763 271.708 21.5405C271.667 21.4989 271.545 21.6485 271.465 21.5492C271.407 21.4768 271.16 21.6617 271.024 21.6617C270.768 21.6466 270.367 21.676 270.194 21.4956C269.904 21.1936 269.902 20.9197 269.666 20.8464C269.174 20.6937 268.806 20.9258 268.292 20.9068C268.115 20.9002 267.854 20.8464 267.869 20.4236C267.877 20.182 268.006 19.9451 267.965 19.8017C267.931 19.6821 267.314 19.7471 267.228 19.7601C266.981 19.797 266.752 19.8892 266.513 19.9475C266.251 20.0112 266.03 19.9709 265.798 19.8469C265.687 19.788 265.478 19.5769 265.528 19.4573C265.575 19.3457 265.498 18.9738 265.377 18.8835C265.25 18.788 265.311 18.8995 265.17 18.9896C264.626 19.3354 264.222 19.6914 263.641 19.9555C263.409 20.061 263.077 20.1845 262.947 19.9555C262.827 19.7454 263.13 19.2035 262.886 19.0949C262.717 19.0198 262.087 19.1966 261.939 19.2707C261.422 19.5292 261.054 20.0287 260.571 20.3397C260.092 20.6486 259.682 21.0532 259.173 21.3149C259 21.4036 258.855 21.4634 258.674 21.5409C258.529 21.6029 258.387 21.7564 258.301 21.891C258.243 21.9833 258.387 22.0987 258.326 22.1751C258.301 22.1902 258.341 22.2958 258.266 22.3562C258.19 22.3864 258.035 22.3505 257.919 22.4015C257.711 22.4925 257.597 22.3753 257.597 22.5331C257.597 22.7069 257.583 22.9341 257.689 23.081C257.764 23.1859 257.907 23.1591 257.994 23.1421C258.116 23.1185 258.148 23.1021 258.272 23.0405L258.281 23.0357C258.915 22.7488 258.394 23.0273 258.317 23.1421C258.228 23.2756 257.935 23.4948 257.768 23.4886C257.516 23.4793 257.396 23.2105 257.179 23.0961C257.019 23.012 256.71 22.796 256.635 23.0206C256.506 23.409 256.441 24.3102 255.926 24.4248C255.735 24.4672 255.512 24.1983 255.322 24.1983C255.233 24.1983 255.071 24.1924 254.99 24.2285C254.862 24.2854 254.774 24.4133 254.661 24.4939C254.548 24.5748 254.399 24.6625 254.27 24.7195C254.186 24.7569 254.069 24.9381 253.993 24.9985C253.827 25.1193 254.44 25.4756 254.506 25.5421C254.72 25.7553 254.37 25.816 254.217 25.9759C254.112 26.0845 253.996 26.2445 253.958 26.3906C253.922 26.5272 253.839 26.7077 253.872 26.8557C253.919 27.068 254.092 27.2305 254.199 27.4057C254.246 27.4829 254.358 27.5479 254.378 27.64C254.389 27.6906 254.401 27.7767 254.376 27.8135C254.318 27.9011 253.764 28.2854 254.114 28.3353C254.378 28.373 254.63 28.2598 254.899 28.2598H255.458C255.524 28.2598 256.081 28.3487 256.107 28.2598C256.135 28.1628 256.016 28.0183 255.941 27.9277C255.835 27.8008 255.688 27.6785 255.598 27.5931C255.564 27.5613 255.376 27.4048 255.367 27.369C255.355 27.3198 255.516 27.4423 255.563 27.4596C255.631 27.4843 255.769 27.6236 255.831 27.6783C255.914 27.7523 256.007 27.8502 256.107 27.8975C256.218 27.9499 256.356 28.0859 256.439 28.1693C256.541 28.2708 256.62 28.3051 256.726 28.4561C256.801 28.564 256.854 28.7078 256.847 28.8336C256.841 28.9296 256.462 28.9362 256.394 28.9362C256.194 28.9362 256.1 28.9619 255.911 28.9997C255.818 29.0184 255.736 28.9743 255.639 28.9846C255.515 28.9976 255.401 29.0287 255.276 29.045C255.159 29.0603 255.005 29.0684 254.884 29.0903C254.808 29.1039 254.48 29.2035 254.446 29.2111C254.382 29.2252 254.235 29.2839 254.189 29.3319C254.122 29.4033 254.161 29.589 254.161 29.6859C254.161 29.8126 254.478 30.1671 254.371 30.2529C254.19 30.3969 254.037 30.3606 253.827 30.4492C253.521 30.5781 252.851 30.539 252.53 30.5986C252.348 30.6324 251.75 30.6227 252.117 30.9231C252.387 31.1442 252.736 31.2602 253.03 31.4524C253.182 31.5519 253.54 31.6571 253.691 31.8835C253.798 32.0744 253.662 32.3844 253.449 32.5026C253.09 32.7021 253.495 32.5664 253.63 32.5664C253.736 32.5664 253.887 32.53 253.887 32.6536C253.887 32.7483 253.767 32.8257 253.767 32.9254C253.767 33.2655 253.963 33.4621 254.217 33.7013C254.899 34.3446 255.352 34.6444 255.352 35.3864C255.352 35.5387 255.407 35.8875 255.186 35.8998C255.058 35.9069 254.975 35.9641 254.847 35.9641C254.713 35.9641 254.528 36.0143 254.401 36.0508C254.232 36.0989 254.522 36.1845 254.56 36.2071C254.691 36.285 254.781 36.3497 254.833 36.4951C254.913 36.721 254.929 36.6849 254.833 36.9114C254.763 37.0322 254.38 37.545 254.569 37.604C254.828 37.685 255.094 37.738 255.365 37.8C255.584 37.8501 255.84 37.8349 256.062 37.8626C256.24 37.885 256.417 37.8655 256.59 37.923C256.714 37.9642 256.963 38.1001 257.058 38.1948C257.14 38.277 257.101 38.4476 257.144 38.5427C257.19 38.6447 257.16 38.8226 257.16 38.9314C257.16 39.0409 257.209 39.0381 257.209 39.146C257.209 39.2596 257.188 39.3257 257.305 39.3647C257.44 39.4099 257.566 39.5347 257.706 39.5718C257.858 39.6116 258.008 39.6212 258.159 39.6568C258.329 39.6967 258.469 39.7809 258.643 39.8078C258.93 39.7802 259.153 39.8859 259.429 39.8859C259.715 39.8859 259.996 40.0203 260.266 40.1184C260.424 40.1759 260.424 40.2609 260.502 40.3925Z" fill="#3382B7"/>
<path d="M260.502 40.3925C260.566 40.5017 260.419 40.7035 260.377 40.8055C260.377 40.9727 260.723 41.0032 260.878 41.0032C261.061 41.0032 261.638 41.1015 261.687 41.3209C261.701 41.3834 261.51 41.441 261.542 41.441C261.683 41.441 261.873 41.4941 262.011 41.4684C262.329 41.4094 262.677 41.399 262.999 41.399C263.183 41.399 263.297 41.3339 263.475 41.29C263.656 41.2453 263.922 41.237 264.101 41.1821C264.356 41.1035 264.597 41.0691 264.864 41.0636C265.183 41.0569 265.544 40.8448 265.861 40.8371C266.48 40.822 267.289 40.8502 267.823 40.52C267.998 40.4125 268.112 40.3829 268.186 40.369C268.427 40.3237 268.678 40.2474 268.926 40.2121C269.077 40.1904 269.355 40.1702 269.499 40.1123C269.619 40.0646 269.712 39.9363 269.786 39.8255C269.875 39.6922 269.999 39.5569 270.107 39.4027C270.198 39.3277 270.579 38.9071 270.571 39.0252C270.565 39.1228 270.385 39.3463 270.33 39.4178C270.25 39.5202 270.3 39.448 270.058 39.8255C269.888 40.0338 269.816 40.3539 269.716 40.6181C269.716 40.6843 269.691 40.7235 269.696 40.7918C269.844 40.4925 270.496 39.7006 270.722 39.4329C270.842 39.2913 271.022 39.1696 271.153 39.039C271.246 38.9454 271.263 38.8377 271.434 38.8377L271.437 38.8368C271.515 38.8113 271.829 38.7093 272.168 38.8065L272.174 38.8065C272.249 38.8066 272.455 38.8068 272.444 38.7082C272.439 38.6632 272.353 38.678 272.338 38.6176C272.334 38.6005 272.353 38.5014 272.368 38.4817C272.387 38.4213 272.429 38.1443 272.429 37.9079C272.429 37.5525 272.341 37.1228 272.413 36.9567C272.519 36.7151 272.64 36.4585 272.871 36.2071C272.972 36.1511 273.079 36.0711 273.168 35.9904C273.286 35.8847 273.537 35.8205 273.621 35.6884C273.731 35.5159 273.742 35.3562 273.787 35.0996C273.863 34.9939 273.918 34.8776 273.94 34.8154C273.993 34.6611 274.154 34.6054 274.24 34.4654C274.306 34.3602 274.4 34.1465 274.527 34.1182C274.646 34.0919 274.7 34.1699 274.678 34.2691C274.65 34.3971 274.447 34.5386 274.376 34.6466C274.296 34.7692 274.221 34.8705 274.158 34.9958C274.102 35.1091 274.116 35.2051 274.089 35.326C274.195 35.7488 274.248 35.5555 274.286 35.4921C274.344 35.3923 274.423 35.0998 274.525 35.0427C274.7 34.944 274.834 34.7806 275.009 34.6852C275.118 34.6257 275.224 34.4854 275.314 34.3954C275.391 34.3188 275.477 34.237 275.541 34.1508C275.608 34.0618 275.52 34.0263 275.449 33.9755C275.346 33.9009 275.067 33.8028 275.231 33.6388C275.308 33.5618 275.499 33.5086 275.604 33.4809C276.138 33.3404 275.359 33.1341 275.909 33.1051C276.022 33.0992 277.09 33.2848 276.974 33.2591C275.948 32.7156 276.896 32.9375 276.307 32.7715C276.354 32.6412 276.913 32.4573 276.868 32.3969C276.741 32.3238 276.657 32.263 276.535 32.1855C276.377 32.0845 276.21 31.9317 276.052 31.8231C274.995 31.3249 276.354 30.887 275.931 30.419C275.834 30.4033 275.796 30.3586 275.675 30.268C275.554 30.1774 275.419 30.1647 275.358 30.0717C275.278 29.9495 275.183 29.9411 275.131 29.7999C275.103 29.7238 275.094 29.6118 275.056 29.5432C275.002 29.446 275.026 29.3922 275.026 29.2413C274.98 29.1054 274.997 29.0295 274.875 28.9544C274.733 28.867 274.492 28.8859 274.331 28.9242C274.109 28.9772 274.053 28.9999 274.106 28.8789C274.167 28.7429 274.383 28.6318 274.452 28.5014C274.512 28.3875 274.576 28.385 274.648 28.2749C274.71 28.18 274.795 28.0196 274.844 27.9126C274.909 27.7735 275.026 27.5065 275.026 27.3388C275.026 27.2477 275.029 27.143 275.026 27.0519C275.022 26.9694 274.995 26.8479 274.98 26.7651C274.893 26.6271 274.784 26.6497 274.693 26.5386C274.552 26.3657 274.13 26.2631 273.923 26.1762C273.606 26.0427 273.969 26.2819 274.027 26.5386C271.991 25.678 273.987 26.629 274.106 26.7047C274.235 26.7864 274.718 26.8418 274.62 27.0368C274.557 27.1626 274.393 27.333 274.316 27.4294C274.273 27.4832 274.169 27.4991 274.106 27.5351C274.027 27.5806 274.077 27.5542 273.999 27.5955C274.106 27.3539 274.165 27.3237 274.18 27.2808C274.256 27.067 274.338 27.0519 274.331 26.9915C274.315 26.8525 273.606 26.7633 273.425 26.6594C273.354 26.6336 273.29 26.6265 273.229 26.5839C273.174 26.5458 273.028 26.5012 272.972 26.486C272.788 26.4357 272.651 26.3357 272.474 26.2656C272.346 26.2151 272.236 26.0298 272.172 25.9497C272.088 25.8452 272.296 25.6174 272.323 25.4968C272.356 25.3494 272.461 25.3831 272.534 25.2703C272.568 25.2186 272.661 25.1608 272.7 25.1042C272.747 25.0373 272.854 24.9356 272.912 24.8777C273.091 24.6983 273.252 24.657 273.38 24.4399C273.398 24.4086 273.566 24.2167 273.455 24.1983C273.322 24.1761 273.063 24.0171 272.951 23.9699C272.746 23.8835 272.338 23.7755 272.157 23.6245C271.9 23.383 271.839 23.2744 271.776 23.0055C271.748 22.8875 271.803 22.6999 271.776 22.5799C271.747 22.4499 271.746 22.3251 271.746 22.1877C271.746 22.0562 271.715 21.9447 271.715 21.8147C271.715 21.7634 271.744 21.5763 271.708 21.5405C271.667 21.4989 271.545 21.6485 271.465 21.5492C271.407 21.4768 271.16 21.6617 271.024 21.6617C270.768 21.6466 270.367 21.676 270.194 21.4956C269.904 21.1936 269.902 20.9197 269.666 20.8464C269.174 20.6937 268.806 20.9258 268.292 20.9068C268.115 20.9002 267.854 20.8464 267.869 20.4236C267.877 20.182 268.006 19.9451 267.965 19.8017C267.931 19.6821 267.314 19.7471 267.228 19.7601C266.981 19.797 266.752 19.8892 266.513 19.9475C266.251 20.0112 266.03 19.9709 265.798 19.8469C265.687 19.788 265.478 19.5769 265.528 19.4573C265.575 19.3457 265.498 18.9738 265.377 18.8835C265.25 18.788 265.311 18.8995 265.17 18.9896C264.626 19.3354 264.222 19.6914 263.641 19.9555C263.409 20.061 263.077 20.1845 262.947 19.9555C262.827 19.7454 263.13 19.2035 262.886 19.0949C262.717 19.0198 262.087 19.1966 261.939 19.2707C261.422 19.5292 261.054 20.0287 260.571 20.3397C260.092 20.6486 259.682 21.0532 259.173 21.3149C259 21.4036 258.855 21.4634 258.674 21.5409C258.529 21.6029 258.387 21.7564 258.301 21.891C258.243 21.9833 258.387 22.0987 258.326 22.1751C258.301 22.1902 258.341 22.2958 258.266 22.3562C258.19 22.3864 258.035 22.3505 257.919 22.4015C257.711 22.4925 257.597 22.3753 257.597 22.5331C257.597 22.7069 257.583 22.9341 257.689 23.081C257.764 23.1859 257.907 23.1591 257.994 23.1421C258.116 23.1185 258.148 23.1021 258.272 23.0405L258.281 23.0357C258.915 22.7488 258.394 23.0273 258.317 23.1421C258.228 23.2756 257.935 23.4948 257.768 23.4886C257.516 23.4793 257.396 23.2105 257.179 23.0961C257.019 23.012 256.71 22.796 256.635 23.0206C256.506 23.409 256.441 24.3102 255.926 24.4248C255.735 24.4672 255.512 24.1983 255.322 24.1983C255.233 24.1983 255.071 24.1924 254.99 24.2285C254.862 24.2854 254.774 24.4133 254.661 24.4939C254.548 24.5748 254.399 24.6625 254.27 24.7195C254.186 24.7569 254.069 24.9381 253.993 24.9985C253.827 25.1193 254.44 25.4756 254.506 25.5421C254.72 25.7553 254.37 25.816 254.217 25.9759C254.112 26.0845 253.996 26.2445 253.958 26.3906C253.922 26.5272 253.839 26.7077 253.872 26.8557C253.919 27.068 254.092 27.2305 254.199 27.4057C254.246 27.4829 254.358 27.5479 254.378 27.64C254.389 27.6906 254.401 27.7767 254.376 27.8135C254.318 27.9011 253.764 28.2854 254.114 28.3353C254.378 28.373 254.63 28.2598 254.899 28.2598H255.458C255.524 28.2598 256.081 28.3487 256.107 28.2598C256.135 28.1628 256.016 28.0183 255.941 27.9277C255.835 27.8008 255.688 27.6785 255.598 27.5931C255.564 27.5613 255.376 27.4048 255.367 27.369C255.355 27.3198 255.516 27.4423 255.563 27.4596C255.631 27.4843 255.769 27.6236 255.831 27.6783C255.914 27.7523 256.007 27.8502 256.107 27.8975C256.218 27.9499 256.356 28.0859 256.439 28.1693C256.541 28.2708 256.62 28.3051 256.726 28.4561C256.801 28.564 256.854 28.7078 256.847 28.8336C256.841 28.9296 256.462 28.9362 256.394 28.9362C256.194 28.9362 256.1 28.9619 255.911 28.9997C255.818 29.0184 255.736 28.9743 255.639 28.9846C255.515 28.9976 255.401 29.0287 255.276 29.045C255.159 29.0603 255.005 29.0684 254.884 29.0903C254.808 29.1039 254.48 29.2035 254.446 29.2111C254.382 29.2252 254.235 29.2839 254.189 29.3319C254.122 29.4033 254.161 29.589 254.161 29.6859C254.161 29.8126 254.478 30.1671 254.371 30.2529C254.19 30.3969 254.037 30.3606 253.827 30.4492C253.521 30.5781 252.851 30.539 252.53 30.5986C252.348 30.6324 251.75 30.6227 252.117 30.9231C252.387 31.1442 252.736 31.2602 253.03 31.4524C253.182 31.5519 253.54 31.6571 253.691 31.8835C253.798 32.0744 253.662 32.3844 253.449 32.5026C253.09 32.7021 253.495 32.5664 253.63 32.5664C253.736 32.5664 253.887 32.53 253.887 32.6536C253.887 32.7483 253.767 32.8257 253.767 32.9254C253.767 33.2655 253.963 33.4621 254.217 33.7013C254.899 34.3446 255.352 34.6444 255.352 35.3864C255.352 35.5387 255.407 35.8875 255.186 35.8998C255.058 35.9069 254.975 35.9641 254.847 35.9641C254.713 35.9641 254.528 36.0143 254.401 36.0508C254.232 36.0989 254.522 36.1845 254.56 36.2071C254.691 36.285 254.781 36.3497 254.833 36.4951C254.913 36.721 254.929 36.6849 254.833 36.9114C254.763 37.0322 254.38 37.545 254.569 37.604C254.828 37.685 255.094 37.738 255.365 37.8C255.584 37.8501 255.84 37.8349 256.062 37.8626C256.24 37.885 256.417 37.8655 256.59 37.923C256.714 37.9642 256.963 38.1001 257.058 38.1948C257.14 38.277 257.101 38.4476 257.144 38.5427C257.19 38.6447 257.16 38.8226 257.16 38.9314C257.16 39.0409 257.209 39.0381 257.209 39.146C257.209 39.2596 257.188 39.3257 257.305 39.3647C257.44 39.4099 257.566 39.5347 257.706 39.5718C257.858 39.6116 258.008 39.6212 258.159 39.6568C258.329 39.6967 258.469 39.7809 258.643 39.8078C258.93 39.7802 259.153 39.8859 259.429 39.8859C259.715 39.8859 259.996 40.0203 260.266 40.1184C260.424 40.1759 260.424 40.2609 260.502 40.3925Z" fill="url(#paint0_radial)" style="mix-blend-mode:hard-light"/>
<path d="M259.212 26.4627C260.731 24.1752 278.404 21.8517 264.122 27.4678C263.937 27.1294 269.019 25.6086 268.571 25.0572C267.459 23.6917 260.481 27.0753 263.599 27.9366C270.279 30.4283 274.734 31.417 270.687 34.219C264.25 38.9377 256.349 36.6503 256.775 34.8661C257.604 31.39 267.904 31.1365 266.532 31.2966C256.78 32.4348 260.532 35.6187 265.109 34.219C271.419 32.2892 268.288 31.22 266.778 30.6611C256.993 28.7243 259.021 26.7515 259.212 26.4627Z" fill="#BBE1FA"/>
<defs>
<radialGradient id="paint0_radial" cx="0" cy="0" r="1" gradientUnits="userSpaceOnUse" gradientTransform="translate(279.767 16.7482) rotate(134.194) scale(25.8181 26.9223)">
<stop stop-color="white"/>
<stop offset="1" stop-color="#3382B7"/>
</radialGradient>
</defs>
</svg>
