<svg width="1000" height="1000" viewBox="0 0 1000 1000" fill="none" xmlns="http://www.w3.org/2000/svg">
<path d="M340.071 895.706C342.659 900.074 336.765 908.145 335.073 912.225C335.073 918.914 348.914 920.131 355.122 920.131C362.439 920.131 385.529 924.065 387.479 932.841C388.034 935.341 380.407 937.645 381.696 937.645C387.31 937.645 394.932 939.769 400.459 938.74C413.142 936.381 427.077 935.964 439.954 935.964C447.319 935.964 451.88 933.361 459.001 931.606C466.253 929.817 476.892 929.484 484.03 927.288C494.248 924.143 503.89 922.769 514.565 922.546C527.31 922.281 541.742 913.797 554.425 913.487C579.187 912.883 611.555 914.012 632.939 900.804C639.904 896.502 644.465 895.321 647.433 894.765C657.097 892.953 667.13 889.901 677.027 888.487C683.087 887.621 694.187 886.814 699.977 884.498C704.754 882.587 708.497 877.456 711.452 873.023C715.006 867.692 719.977 862.282 724.261 856.112C727.927 853.113 743.153 836.286 742.857 841.013C742.613 844.917 735.417 853.858 733.194 856.716C730.007 860.813 731.986 857.924 722.323 873.023C715.503 881.358 712.66 894.161 708.644 904.729C708.644 907.378 707.658 908.944 707.828 911.675C713.741 899.703 739.835 868.029 748.897 857.32C753.688 851.658 760.894 846.787 766.116 841.565C769.86 837.821 770.522 833.513 777.361 833.513L777.472 833.477C780.609 832.457 793.151 828.378 806.722 832.264L806.956 832.264C809.98 832.267 818.185 832.276 817.747 828.33C817.547 826.533 814.123 827.122 813.519 824.707C813.349 824.023 814.112 820.062 814.727 819.271C815.488 816.855 817.143 805.777 817.143 796.321C817.143 782.103 813.633 764.916 816.539 758.272C820.767 748.609 825.598 738.342 834.833 728.286C838.865 726.046 843.15 722.847 846.737 719.62C851.434 715.392 861.492 712.825 864.855 707.54C869.245 700.642 869.687 694.254 871.499 683.987C874.518 679.759 876.729 675.107 877.591 672.618C879.726 666.449 886.142 664.219 889.617 658.621C892.229 654.412 895.98 645.866 901.092 644.73C905.826 643.678 908.014 646.8 907.132 650.769C905.994 655.888 897.877 661.548 895.053 665.868C891.846 670.773 888.844 674.822 886.336 679.837C884.071 684.368 884.653 688.207 883.578 693.046C887.805 709.956 889.938 702.224 891.429 699.689C893.778 695.696 896.923 683.994 900.982 681.711C908.001 677.763 913.355 671.227 920.348 667.412C924.71 665.033 928.965 659.42 932.564 655.821C935.629 652.756 939.07 649.483 941.657 646.034C944.327 642.475 940.79 641.054 937.978 639.023C933.85 636.042 922.675 632.115 929.232 625.558C932.315 622.476 939.957 620.346 944.156 619.241C965.523 613.618 934.353 605.368 956.366 604.209C960.882 603.972 1003.59 611.396 998.973 610.37C957.905 588.627 995.833 597.506 972.279 590.862C974.141 585.651 996.516 578.295 994.704 575.88C989.657 572.958 986.286 570.523 981.417 567.424C975.07 563.385 968.404 557.27 962.091 552.93C919.814 532.999 974.17 515.485 957.259 496.762C953.375 496.136 951.824 494.347 946.992 490.723C942.161 487.099 936.747 486.592 934.309 482.872C931.108 477.985 927.314 477.648 925.25 472C924.137 468.955 923.755 464.478 922.23 461.733C920.069 457.843 921.022 455.694 921.022 449.654C919.211 444.219 919.867 441.185 914.983 438.179C909.301 434.683 899.674 435.44 893.241 436.971C884.343 439.09 882.104 439.998 884.254 435.16C886.672 429.719 895.312 425.275 898.072 420.061C900.486 415.502 903.045 415.404 905.924 411.002C908.408 407.202 911.798 400.789 913.775 396.507C916.343 390.943 921.022 380.264 921.022 373.557C921.022 369.912 921.162 365.725 921.022 362.082C920.895 358.778 919.813 353.919 919.211 350.607C915.705 345.088 911.373 345.993 907.735 341.547C902.078 334.632 885.188 330.528 876.934 327.053C864.251 321.712 878.746 331.28 881.061 341.547C799.629 307.122 879.5 345.165 884.254 348.191C889.389 351.459 908.701 353.676 904.8 361.478C902.284 366.509 895.722 373.324 892.637 377.18C890.914 379.334 886.773 379.969 884.254 381.408C881.069 383.228 883.075 382.172 879.954 383.824C884.254 374.161 886.595 372.953 887.201 371.235C890.221 362.686 893.525 362.08 893.241 359.666C892.586 354.102 864.251 350.536 857.004 346.379C854.169 345.348 851.588 345.064 849.152 343.359C846.978 341.837 841.109 340.054 838.885 339.445C831.534 337.433 826.055 333.433 818.955 330.63C813.836 328.609 809.437 321.195 806.876 317.993C803.529 313.81 811.843 304.699 812.915 299.875C814.225 293.982 818.452 295.326 821.371 290.816C822.709 288.747 826.447 286.436 828.014 284.172C829.866 281.498 834.156 277.426 836.469 275.113C843.648 267.934 850.083 266.284 855.192 257.598C855.926 256.35 862.631 248.672 858.212 247.935C852.897 247.049 842.509 240.688 838.026 238.799C829.826 235.344 813.519 231.025 806.272 224.985C796.005 215.322 793.566 210.982 791.035 200.223C789.924 195.502 792.101 187.999 791.035 183.201C789.879 177.999 789.855 173.007 789.855 167.514C789.855 162.253 788.605 157.791 788.605 152.59C788.605 150.539 789.762 143.057 788.328 141.623C786.664 139.96 781.79 145.945 778.61 141.97C776.296 139.077 766.411 146.472 760.976 146.472C750.709 145.868 734.695 147.042 727.759 139.828C716.144 127.749 716.072 116.792 706.62 113.859C686.944 107.752 672.236 117.036 651.661 116.274C644.598 116.013 634.147 113.859 634.75 96.948C635.096 87.2848 640.246 77.806 638.608 72.0735C637.241 67.2889 612.566 69.8889 609.108 70.4076C599.259 71.885 590.097 75.5724 580.511 77.904C570.034 80.4523 561.217 78.8402 551.914 73.8781C547.496 71.5221 539.124 63.0801 541.138 58.2953C543.018 53.8315 539.912 38.9549 535.099 35.3452C530.003 31.5231 532.451 35.9844 526.787 39.5891C505.05 53.4218 488.888 67.6607 465.645 78.2256C456.363 82.4445 443.096 87.3834 437.863 78.2256C433.061 69.8219 445.216 48.1422 435.447 43.8005C428.689 40.7966 403.477 47.8666 397.543 50.8337C376.865 61.173 362.152 81.1501 342.847 93.5909C323.673 105.947 307.285 122.133 286.902 132.6C279.995 136.147 274.184 138.538 266.945 141.64C261.157 144.121 255.485 150.259 252.058 155.644C249.708 159.337 255.498 163.952 253.055 167.006C252.058 167.61 253.659 171.838 250.639 174.254C247.619 175.461 241.411 174.025 236.748 176.065C228.428 179.705 223.877 175.016 223.877 181.327C223.877 188.281 223.328 197.368 227.556 203.243C230.575 207.44 236.292 206.368 239.768 205.69C244.623 204.742 245.935 204.086 250.86 201.623L251.243 201.431C276.609 189.956 255.744 201.097 252.682 205.69C249.123 211.029 237.401 219.798 230.709 219.55C220.625 219.176 215.849 208.423 207.155 203.847C200.768 200.486 188.406 191.846 185.412 200.827C180.234 216.362 177.642 252.413 157.027 256.995C149.384 258.693 140.476 247.935 132.869 247.935C129.306 247.935 122.826 247.701 119.582 249.143C114.461 251.419 110.947 256.537 106.433 259.761C101.905 262.995 95.9513 266.502 90.8156 268.785C87.449 270.281 82.741 277.529 79.7213 279.945C73.0778 284.776 97.5985 299.03 100.256 301.687C108.785 310.217 94.8105 312.646 88.6639 319.038C84.4853 323.384 79.8592 329.785 78.3216 335.627C76.8832 341.093 73.5744 348.311 74.8897 354.23C76.7769 362.723 83.6857 369.223 87.9698 376.233C89.8563 379.32 94.3009 381.922 95.1191 385.604C95.569 387.628 96.0279 391.071 95.0497 392.545C92.7234 396.048 70.5756 411.421 84.5529 413.417C95.1003 414.924 105.187 410.398 115.958 410.398H138.304C140.951 410.398 163.259 413.951 164.274 410.398C165.383 406.518 160.65 400.734 157.631 397.111C153.403 392.038 147.52 387.145 143.915 383.729C142.571 382.456 135.039 376.196 134.681 374.765C134.189 372.797 140.626 377.695 142.532 378.388C145.251 379.377 150.762 384.948 153.221 387.134C156.553 390.096 160.282 394.012 164.274 395.903C168.704 398.001 174.226 403.439 177.561 406.774C181.624 410.837 184.808 412.209 189.036 418.249C192.056 422.563 194.164 428.318 193.868 433.348C193.642 437.188 178.478 437.454 175.775 437.454C167.78 437.454 164.006 438.48 156.437 439.994C152.704 440.74 149.452 438.977 145.552 439.387C140.611 439.907 136.023 441.152 131.057 441.803C126.372 442.417 120.186 442.741 115.354 443.615C112.335 444.161 99.2032 448.143 97.8398 448.446C95.2948 449.012 89.3828 451.361 87.5726 453.278C84.8752 456.134 86.4427 463.562 86.4427 467.439C86.4427 472.508 99.1087 486.688 94.82 490.119C87.6194 495.879 81.4915 494.428 73.0778 497.97C60.8245 503.13 34.027 501.562 21.1963 503.949C13.9347 505.3 -10.0096 504.913 4.67643 516.929C15.4845 525.772 29.426 530.41 41.1867 538.1C47.2726 542.079 61.6028 546.286 67.6423 555.345C71.935 562.979 66.4903 575.379 57.9791 580.107C43.6133 588.088 59.791 582.662 65.2029 582.662C69.4541 582.662 75.4936 581.203 75.4936 586.147C75.4936 589.934 70.662 593.034 70.662 597.018C70.662 610.623 78.5134 618.487 88.6639 628.056C115.958 653.789 134.077 665.782 134.077 695.462C134.077 701.553 136.282 715.504 127.433 715.996C122.312 716.28 118.996 718.568 113.86 718.568C108.523 718.568 101.132 720.577 96.0279 722.035C89.2964 723.959 100.891 727.384 102.407 728.286C107.643 731.402 111.228 733.993 113.305 739.808C116.532 748.844 117.166 747.401 113.305 756.46C110.523 761.292 95.2023 781.802 102.754 784.162C113.13 787.404 123.761 789.525 134.614 792.005C143.371 794.007 153.6 793.401 162.462 794.509C169.617 795.404 176.699 794.625 183.601 796.925C188.544 798.573 198.535 804.008 202.323 807.796C205.609 811.082 204.031 817.908 205.76 821.713C207.614 825.79 206.385 832.908 206.385 837.261C206.385 841.641 208.362 841.529 208.362 845.845C208.362 850.389 207.504 853.032 212.18 854.591C217.609 856.4 222.62 861.393 228.25 862.874C234.305 864.468 240.32 864.853 246.366 866.275C253.154 867.872 258.744 871.239 265.732 872.314C277.213 871.211 286.101 875.438 297.143 875.438C308.592 875.438 319.841 880.815 330.631 884.739C336.961 887.04 336.95 890.439 340.071 895.706Z" fill="#3382B7"/>
<path d="M340.071 895.706C342.659 900.074 336.765 908.145 335.073 912.225C335.073 918.914 348.914 920.131 355.122 920.131C362.439 920.131 385.529 924.065 387.479 932.841C388.034 935.341 380.407 937.645 381.696 937.645C387.31 937.645 394.932 939.769 400.459 938.74C413.142 936.381 427.077 935.964 439.954 935.964C447.319 935.964 451.88 933.361 459.001 931.606C466.253 929.817 476.892 929.484 484.03 927.288C494.248 924.143 503.89 922.769 514.565 922.546C527.31 922.281 541.742 913.797 554.425 913.487C579.187 912.883 611.555 914.012 632.939 900.804C639.904 896.502 644.465 895.321 647.433 894.765C657.097 892.953 667.13 889.901 677.027 888.487C683.087 887.621 694.187 886.814 699.977 884.498C704.754 882.587 708.497 877.456 711.452 873.023C715.006 867.692 719.977 862.282 724.261 856.112C727.927 853.113 743.153 836.286 742.857 841.013C742.613 844.917 735.417 853.858 733.194 856.716C730.007 860.813 731.986 857.924 722.323 873.023C715.503 881.358 712.66 894.161 708.644 904.729C708.644 907.378 707.658 908.944 707.828 911.675C713.741 899.703 739.835 868.029 748.897 857.32C753.688 851.658 760.894 846.787 766.116 841.565C769.86 837.821 770.522 833.513 777.361 833.513L777.472 833.477C780.609 832.457 793.151 828.378 806.722 832.264L806.956 832.264C809.98 832.267 818.185 832.276 817.747 828.33C817.547 826.533 814.123 827.122 813.519 824.707C813.349 824.023 814.112 820.062 814.727 819.271C815.488 816.855 817.143 805.777 817.143 796.321C817.143 782.103 813.633 764.916 816.539 758.272C820.767 748.609 825.598 738.342 834.833 728.286C838.865 726.046 843.15 722.847 846.737 719.62C851.434 715.392 861.492 712.825 864.855 707.54C869.245 700.642 869.687 694.254 871.499 683.987C874.518 679.759 876.729 675.107 877.591 672.618C879.726 666.449 886.142 664.219 889.617 658.621C892.229 654.412 895.98 645.866 901.092 644.73C905.826 643.678 908.014 646.8 907.132 650.769C905.994 655.888 897.877 661.548 895.053 665.868C891.846 670.773 888.844 674.822 886.336 679.837C884.071 684.368 884.653 688.207 883.578 693.046C887.805 709.956 889.938 702.224 891.429 699.689C893.778 695.696 896.923 683.994 900.982 681.711C908.001 677.763 913.355 671.227 920.348 667.412C924.71 665.033 928.965 659.42 932.564 655.821C935.629 652.756 939.07 649.483 941.657 646.034C944.327 642.475 940.79 641.054 937.978 639.023C933.85 636.042 922.675 632.115 929.232 625.558C932.315 622.476 939.957 620.346 944.156 619.241C965.523 613.618 934.353 605.368 956.366 604.209C960.882 603.972 1003.59 611.396 998.973 610.37C957.905 588.627 995.833 597.506 972.279 590.862C974.141 585.651 996.516 578.295 994.704 575.88C989.657 572.958 986.286 570.523 981.417 567.424C975.07 563.385 968.404 557.27 962.091 552.93C919.814 532.999 974.17 515.485 957.259 496.762C953.375 496.136 951.824 494.347 946.992 490.723C942.161 487.099 936.747 486.592 934.309 482.872C931.108 477.985 927.314 477.648 925.25 472C924.137 468.955 923.755 464.478 922.23 461.733C920.069 457.843 921.022 455.694 921.022 449.654C919.211 444.219 919.867 441.185 914.983 438.179C909.301 434.683 899.674 435.44 893.241 436.971C884.343 439.09 882.104 439.998 884.254 435.16C886.672 429.719 895.312 425.275 898.072 420.061C900.486 415.502 903.045 415.404 905.924 411.002C908.408 407.202 911.798 400.789 913.775 396.507C916.343 390.943 921.022 380.264 921.022 373.557C921.022 369.912 921.162 365.725 921.022 362.082C920.895 358.778 919.813 353.919 919.211 350.607C915.705 345.088 911.373 345.993 907.735 341.547C902.078 334.632 885.188 330.528 876.934 327.053C864.251 321.712 878.746 331.28 881.061 341.547C799.629 307.122 879.5 345.165 884.254 348.191C889.389 351.459 908.701 353.676 904.8 361.478C902.284 366.509 895.722 373.324 892.637 377.18C890.914 379.334 886.773 379.969 884.254 381.408C881.069 383.228 883.075 382.172 879.954 383.824C884.254 374.161 886.595 372.953 887.201 371.235C890.221 362.686 893.525 362.08 893.241 359.666C892.586 354.102 864.251 350.536 857.004 346.379C854.169 345.348 851.588 345.064 849.152 343.359C846.978 341.837 841.109 340.054 838.885 339.445C831.534 337.433 826.055 333.433 818.955 330.63C813.836 328.609 809.437 321.195 806.876 317.993C803.529 313.81 811.843 304.699 812.915 299.875C814.225 293.982 818.452 295.326 821.371 290.816C822.709 288.747 826.447 286.436 828.014 284.172C829.866 281.498 834.156 277.426 836.469 275.113C843.648 267.934 850.083 266.284 855.192 257.598C855.926 256.35 862.631 248.672 858.212 247.935C852.897 247.049 842.509 240.688 838.026 238.799C829.826 235.344 813.519 231.025 806.272 224.985C796.005 215.322 793.566 210.982 791.035 200.223C789.924 195.502 792.101 187.999 791.035 183.201C789.879 177.999 789.855 173.007 789.855 167.514C789.855 162.253 788.605 157.791 788.605 152.59C788.605 150.539 789.762 143.057 788.328 141.623C786.664 139.96 781.79 145.945 778.61 141.97C776.296 139.077 766.411 146.472 760.976 146.472C750.709 145.868 734.695 147.042 727.759 139.828C716.144 127.749 716.072 116.792 706.62 113.859C686.944 107.752 672.236 117.036 651.661 116.274C644.598 116.013 634.147 113.859 634.75 96.948C635.096 87.2848 640.246 77.806 638.608 72.0735C637.241 67.2889 612.566 69.8889 609.108 70.4076C599.259 71.885 590.097 75.5724 580.511 77.904C570.034 80.4523 561.217 78.8402 551.914 73.8781C547.496 71.5221 539.124 63.0801 541.138 58.2953C543.018 53.8315 539.912 38.9549 535.099 35.3452C530.003 31.5231 532.451 35.9844 526.787 39.5891C505.05 53.4218 488.888 67.6607 465.645 78.2256C456.363 82.4445 443.096 87.3834 437.863 78.2256C433.061 69.8219 445.216 48.1422 435.447 43.8005C428.689 40.7966 403.477 47.8666 397.543 50.8337C376.865 61.173 362.152 81.1501 342.847 93.5909C323.673 105.947 307.285 122.133 286.902 132.6C279.995 136.147 274.184 138.538 266.945 141.64C261.157 144.121 255.485 150.259 252.058 155.644C249.708 159.337 255.498 163.952 253.055 167.006C252.058 167.61 253.659 171.838 250.639 174.254C247.619 175.461 241.411 174.025 236.748 176.065C228.428 179.705 223.877 175.016 223.877 181.327C223.877 188.281 223.328 197.368 227.556 203.243C230.575 207.44 236.292 206.368 239.768 205.69C244.623 204.742 245.935 204.086 250.86 201.623L251.243 201.431C276.609 189.956 255.744 201.097 252.682 205.69C249.123 211.029 237.401 219.798 230.709 219.55C220.625 219.176 215.849 208.423 207.155 203.847C200.768 200.486 188.406 191.846 185.412 200.827C180.234 216.362 177.642 252.413 157.027 256.995C149.384 258.693 140.476 247.935 132.869 247.935C129.306 247.935 122.826 247.701 119.582 249.143C114.461 251.419 110.947 256.537 106.433 259.761C101.905 262.995 95.9513 266.502 90.8156 268.785C87.449 270.281 82.741 277.529 79.7213 279.945C73.0778 284.776 97.5985 299.03 100.256 301.687C108.785 310.217 94.8105 312.646 88.6639 319.038C84.4853 323.384 79.8592 329.785 78.3216 335.627C76.8832 341.093 73.5744 348.311 74.8897 354.23C76.7769 362.723 83.6857 369.223 87.9698 376.233C89.8563 379.32 94.3009 381.922 95.1191 385.604C95.569 387.628 96.0279 391.071 95.0497 392.545C92.7234 396.048 70.5756 411.421 84.5529 413.417C95.1003 414.924 105.187 410.398 115.958 410.398H138.304C140.951 410.398 163.259 413.951 164.274 410.398C165.383 406.518 160.65 400.734 157.631 397.111C153.403 392.038 147.52 387.145 143.915 383.729C142.571 382.456 135.039 376.196 134.681 374.765C134.189 372.797 140.626 377.695 142.532 378.388C145.251 379.377 150.762 384.948 153.221 387.134C156.553 390.096 160.282 394.012 164.274 395.903C168.704 398.001 174.226 403.439 177.561 406.774C181.624 410.837 184.808 412.209 189.036 418.249C192.056 422.563 194.164 428.318 193.868 433.348C193.642 437.188 178.478 437.454 175.775 437.454C167.78 437.454 164.006 438.48 156.437 439.994C152.704 440.74 149.452 438.977 145.552 439.387C140.611 439.907 136.023 441.152 131.057 441.803C126.372 442.417 120.186 442.741 115.354 443.615C112.335 444.161 99.2032 448.143 97.8398 448.446C95.2948 449.012 89.3828 451.361 87.5726 453.278C84.8752 456.134 86.4427 463.562 86.4427 467.439C86.4427 472.508 99.1087 486.688 94.82 490.119C87.6194 495.879 81.4915 494.428 73.0778 497.97C60.8245 503.13 34.027 501.562 21.1963 503.949C13.9347 505.3 -10.0096 504.913 4.67643 516.929C15.4845 525.772 29.426 530.41 41.1867 538.1C47.2726 542.079 61.6028 546.286 67.6423 555.345C71.935 562.979 66.4903 575.379 57.9791 580.107C43.6133 588.088 59.791 582.662 65.2029 582.662C69.4541 582.662 75.4936 581.203 75.4936 586.147C75.4936 589.934 70.662 593.034 70.662 597.018C70.662 610.623 78.5134 618.487 88.6639 628.056C115.958 653.789 134.077 665.782 134.077 695.462C134.077 701.553 136.282 715.504 127.433 715.996C122.312 716.28 118.996 718.568 113.86 718.568C108.523 718.568 101.132 720.577 96.0279 722.035C89.2964 723.959 100.891 727.384 102.407 728.286C107.643 731.402 111.228 733.993 113.305 739.808C116.532 748.844 117.166 747.401 113.305 756.46C110.523 761.292 95.2023 781.802 102.754 784.162C113.13 787.404 123.761 789.525 134.614 792.005C143.371 794.007 153.6 793.401 162.462 794.509C169.617 795.404 176.699 794.625 183.601 796.925C188.544 798.573 198.535 804.008 202.323 807.796C205.609 811.082 204.031 817.908 205.76 821.713C207.614 825.79 206.385 832.908 206.385 837.261C206.385 841.641 208.362 841.529 208.362 845.845C208.362 850.389 207.504 853.032 212.18 854.591C217.609 856.4 222.62 861.393 228.25 862.874C234.305 864.468 240.32 864.853 246.366 866.275C253.154 867.872 258.744 871.239 265.732 872.314C277.213 871.211 286.101 875.438 297.143 875.438C308.592 875.438 319.841 880.815 330.631 884.739C336.961 887.04 336.95 890.439 340.071 895.706Z" fill="url(#paint0_radial)" style="mix-blend-mode:hard-light"/>
<path d="M303.96 313.674C312.153 248.026 1071.18 130.063 499.868 354.705C492.497 341.17 695.776 280.337 677.826 258.283C633.37 203.662 354.26 339.004 478.959 373.457C746.171 473.126 920.916 512.672 759.071 624.754C503.039 842.795 188.98 722.004 206.006 650.637C239.177 511.593 651.161 501.454 596.286 507.859C206.218 553.386 356.302 680.741 539.357 624.754C791.751 547.561 666.519 504.793 606.115 482.439C214.725 404.967 296.589 372.737 303.96 313.674Z" fill="#BBE1FA"/>
<defs>
<radialGradient id="paint0_radial" cx="0" cy="0" r="1" gradientUnits="userSpaceOnUse" gradientTransform="translate(1110.66 -50.0681) rotate(134.194) scale(1032.72 1076.89)">
<stop stop-color="white"/>
<stop offset="1" stop-color="#3382B7"/>
</radialGradient>
</defs>
</svg>
