<svg width="850" height="750" viewBox="0 0 850 750" fill="none" xmlns="http://www.w3.org/2000/svg">
<mask id="mask0" mask-type="alpha" maskUnits="userSpaceOnUse" x="0" y="0" width="850" height="750">
<path d="M281.539 713.491C283.682 717.107 278.803 723.79 277.402 727.168C277.402 732.705 288.861 733.712 294 733.712C300.057 733.712 319.173 736.97 320.788 744.235C321.248 746.305 314.933 748.212 316 748.212C320.648 748.212 326.958 749.97 331.533 749.119C342.034 747.166 353.57 746.82 364.231 746.82C370.328 746.82 374.105 744.666 380 743.212C386.004 741.732 394.812 741.456 400.72 739.637C409.18 737.034 417.163 735.896 426 735.712C436.552 735.492 448.5 728.468 459 728.212C479.5 727.712 506.296 728.647 524 717.712C529.766 714.151 533.543 713.173 536 712.712C544 711.212 552.307 708.685 560.5 707.515C565.517 706.798 574.706 706.13 579.5 704.212C583.455 702.63 586.553 698.382 589 694.712C591.942 690.299 596.057 685.82 599.605 680.712C602.639 678.229 615.245 664.299 615 668.212C614.798 671.444 608.84 678.846 607 681.212C604.362 684.604 606 682.212 598 694.712C592.354 701.613 590 712.212 586.675 720.962C586.675 723.154 585.859 724.451 586 726.712C590.895 716.801 612.498 690.578 620 681.712C623.966 677.025 629.932 672.992 634.256 668.669C637.355 665.57 637.903 662.003 643.565 662.003L643.657 661.973C646.254 661.129 656.638 657.752 667.872 660.969L668.066 660.969C670.569 660.972 677.363 660.979 677 657.712C676.835 656.224 674 656.712 673.5 654.712C673.359 654.147 673.991 650.867 674.5 650.212C675.13 648.212 676.5 639.041 676.5 631.212C676.5 619.441 673.594 605.212 676 599.712C679.5 591.712 683.5 583.212 691.145 574.887C694.483 573.033 698.031 570.384 701 567.712C704.889 564.212 713.216 562.087 716 557.712C719.634 552.001 720 546.712 721.5 538.212C724 534.712 725.83 530.861 726.543 528.801C728.311 523.693 733.623 521.847 736.5 517.212C738.663 513.728 741.768 506.653 746 505.712C749.919 504.841 751.73 507.426 751 510.712C750.058 514.95 743.339 519.636 741 523.212C738.345 527.273 735.86 530.625 733.784 534.777C731.909 538.528 732.39 541.706 731.5 545.712C735 559.712 736.765 553.311 738 551.212C739.944 547.907 742.549 538.219 745.909 536.328C751.72 533.06 756.152 527.648 761.942 524.491C765.553 522.521 769.075 517.874 772.055 514.894C774.593 512.357 777.442 509.647 779.583 506.792C781.793 503.845 778.865 502.669 776.537 500.988C773.12 498.52 763.868 495.269 769.297 489.84C771.849 487.288 778.175 485.526 781.652 484.611C799.342 479.955 812.276 483.671 830.5 482.712C834.239 482.516 842.816 482.531 846.5 481.712C812.5 463.712 865 469.212 845.5 463.712C840 461.712 840.5 462.258 838.254 461.567C835.036 460.577 830.049 460.892 827.5 460.212C824.049 459.392 821.826 461.4 823.5 456.712C825.041 452.398 825 450.712 823.5 448.712C819.321 446.293 816.531 444.277 812.5 441.712C807.245 438.368 801.727 433.306 796.5 429.712C761.5 413.212 806.5 398.712 792.5 383.212C789.284 382.694 788 381.212 784 378.212C780 375.212 775.518 374.792 773.5 371.712C770.849 367.667 767.708 367.388 766 362.712C765.079 360.191 764.762 356.484 763.5 354.212C761.711 350.992 762.5 349.212 762.5 344.212C761 339.712 761.543 337.201 757.5 334.712C752.796 331.817 744.826 332.444 739.5 333.712C732.133 335.466 730.28 336.218 732.06 332.212C734.062 327.708 741.215 324.029 743.5 319.712C745.498 315.938 747.617 315.857 750 312.212C752.057 309.067 754.864 303.758 756.5 300.212C758.626 295.606 762.5 286.765 762.5 281.212C762.5 278.194 762.616 274.729 762.5 271.712C762.395 268.977 761.499 264.955 761 262.212C758.098 257.644 754.512 258.393 751.5 254.712C746.816 248.987 732.833 245.589 726 242.712C715.5 238.291 727.5 246.212 729.417 254.712C662 226.212 728.124 257.708 732.06 260.212C736.311 262.918 752.299 264.753 749.07 271.212C746.987 275.377 741.554 281.019 739 284.212C737.574 285.995 734.146 286.521 732.06 287.712C729.423 289.219 731.084 288.344 728.5 289.712C732.06 281.712 733.998 280.712 734.5 279.29C737 272.212 739.735 271.711 739.5 269.712C738.958 265.106 715.5 262.154 709.5 258.712C707.153 257.859 705.017 257.624 703 256.212C701.2 254.952 696.341 253.476 694.5 252.972C688.414 251.306 683.878 247.994 678 245.674C673.762 244.001 670.12 237.862 668 235.212C665.229 231.749 672.112 224.206 673 220.212C674.084 215.333 677.584 216.446 680 212.712C681.108 211 684.202 209.087 685.5 207.212C687.033 204.998 690.585 201.627 692.5 199.712C698.443 193.769 703.77 192.403 708 185.212C708.608 184.179 714.158 177.822 710.5 177.212C706.1 176.479 697.5 171.212 693.789 169.648C687 166.788 673.5 163.212 667.5 158.212C659 150.212 656.981 146.619 654.885 137.712C653.966 133.804 655.768 127.592 654.885 123.619C653.929 119.313 653.909 115.18 653.909 110.633C653.909 106.277 652.874 102.583 652.874 98.2777C652.874 96.5795 653.831 90.3853 652.644 89.1983C651.267 87.821 647.232 92.7764 644.599 89.4856C642.683 87.0906 634.5 93.2122 630 93.2122C621.5 92.7122 608.242 93.6843 602.5 87.7122C592.885 77.7122 592.825 68.6407 585 66.2122C568.71 61.1568 556.534 68.8431 539.5 68.2122C533.653 67.9957 525 66.2122 525.5 52.2122C525.786 44.2122 530.05 36.3649 528.694 31.619C527.562 27.658 507.134 29.8104 504.271 30.2399C496.117 31.463 488.532 34.5157 480.596 36.446C471.923 38.5558 464.623 37.221 456.921 33.1131C453.263 31.1625 446.332 24.1735 448 20.2123C449.556 16.5167 446.985 4.20069 443 1.21222C438.781 -1.95202 440.808 1.74146 436.119 4.72568C418.123 16.1776 404.742 27.9657 385.5 36.7123C377.816 40.2051 366.832 44.2938 362.5 36.7123C358.524 29.7549 368.587 11.8067 360.5 8.21228C354.904 5.72538 334.033 11.5786 329.12 14.0349C312 22.5947 299.82 39.1334 283.838 49.433C267.964 59.6627 254.396 73.0627 237.522 81.7279C231.804 84.6642 226.993 86.644 221 89.2123C216.208 91.2661 211.512 96.3477 208.675 100.806C206.729 103.863 211.523 107.684 209.5 110.212C208.675 110.712 210 114.212 207.5 116.212C205 117.212 199.861 116.023 196 117.712C189.112 120.726 185.344 116.844 185.344 122.068C185.344 127.826 184.89 135.348 188.39 140.212C190.89 143.687 195.622 142.8 198.5 142.238C202.52 141.453 203.605 140.91 207.683 138.871L208 138.712C229 129.212 211.727 138.435 209.192 142.238C206.245 146.658 196.54 153.917 191 153.712C182.652 153.403 178.698 144.501 171.5 140.712C166.212 137.929 155.979 130.777 153.5 138.212C149.213 151.073 147.067 180.92 130 184.712C123.673 186.118 116.298 177.212 110 177.212C107.051 177.212 101.686 177.019 99 178.212C94.7605 180.096 91.8511 184.334 88.1143 187.003C84.3657 189.68 79.4365 192.583 75.1848 194.473C72.3977 195.712 68.5 201.712 66 203.712C60.5 207.712 80.8002 219.513 83 221.712C90.0617 228.774 78.4921 230.785 73.4034 236.077C69.9441 239.675 66.1142 244.974 64.8412 249.811C63.6504 254.336 60.9111 260.312 62 265.212C63.5624 272.243 69.2821 277.624 72.8288 283.428C74.3907 285.984 78.0703 288.137 78.7476 291.186C79.1201 292.862 79.5 295.712 78.6902 296.932C76.7642 299.833 58.4284 312.559 70 314.212C78.732 315.46 87.0827 311.712 96 311.712H114.5C116.691 311.712 135.159 314.654 136 311.712C136.918 308.5 133 303.712 130.5 300.712C127 296.512 122.13 292.461 119.145 289.634C118.032 288.58 111.796 283.397 111.5 282.212C111.093 280.583 116.422 284.638 118 285.212C120.251 286.031 124.814 290.643 126.85 292.453C129.608 294.905 132.695 298.147 136 299.712C139.667 301.449 144.239 305.951 147 308.712C150.364 312.076 153 313.212 156.5 318.212C159 321.784 160.745 326.548 160.5 330.712C160.313 333.891 147.759 334.111 145.521 334.111C138.902 334.111 135.778 334.961 129.512 336.215C126.421 336.833 123.729 335.372 120.5 335.712C116.41 336.143 112.611 337.173 108.5 337.712C104.621 338.221 99.5 338.489 95.5 339.212C93 339.664 82.1288 342.961 81 343.212C78.8931 343.681 73.9986 345.626 72.5 347.212C70.2668 349.577 71.5646 355.726 71.5646 358.936C71.5646 363.133 82.0506 374.872 78.5 377.712C72.5387 382.481 67.4655 381.279 60.5 384.212C50.3556 388.484 28.1704 387.186 17.5481 389.162C11.5363 390.281 -8.28678 389.96 3.87155 399.908C12.8194 407.229 24.3613 411.069 34.0978 417.435C39.1362 420.729 51 424.212 56 431.712C59.5539 438.032 55.0463 448.298 48 452.212C36.1067 458.82 49.5 454.327 53.9805 454.327C57.5 454.327 62.5 453.12 62.5 457.212C62.5 460.348 58.5 462.914 58.5 466.212C58.5 477.475 65 483.986 73.4034 491.909C96 513.212 111 523.141 111 547.712C111 552.755 112.826 564.305 105.5 564.712C101.26 564.948 98.5147 566.842 94.263 566.842C89.8446 566.842 83.7257 568.505 79.5 569.712C73.9271 571.305 83.5264 574.14 84.7814 574.887C89.1157 577.467 92.084 579.612 93.8033 584.426C96.4749 591.907 97 590.712 93.8033 598.212C91.5 602.212 78.8165 619.192 85.0687 621.146C93.6584 623.83 102.46 625.586 111.445 627.639C118.695 629.297 127.163 628.795 134.5 629.712C140.423 630.453 146.287 629.808 152 631.712C156.093 633.076 164.364 637.576 167.5 640.712C170.22 643.433 168.914 649.084 170.346 652.234C171.88 655.609 170.863 661.502 170.863 665.106C170.863 668.732 172.5 668.639 172.5 672.212C172.5 675.975 171.79 678.162 175.661 679.453C180.155 680.951 184.304 685.084 188.964 686.311C193.977 687.63 198.957 687.948 203.962 689.126C209.582 690.449 214.21 693.236 219.995 694.126C229.5 693.212 236.858 696.712 246 696.712C255.478 696.712 264.792 701.164 273.724 704.412C278.965 706.317 278.956 709.131 281.539 713.491Z" fill="#3382B7"/>
</mask>
<g mask="url(#mask0)">
<path d="M281.539 713.491C283.682 717.107 278.803 723.79 277.402 727.168C277.402 732.705 288.861 733.712 294 733.712C300.057 733.712 319.173 736.97 320.788 744.235C321.248 746.305 314.933 748.212 316 748.212C320.648 748.212 326.958 749.97 331.533 749.119C342.034 747.166 353.57 746.82 364.231 746.82C370.328 746.82 374.105 744.666 380 743.212C386.004 741.732 394.812 741.456 400.72 739.637C409.18 737.034 417.163 735.896 426 735.712C436.552 735.492 448.5 728.468 459 728.212C479.5 727.712 506.296 728.647 524 717.712C529.766 714.151 533.543 713.173 536 712.712C544 711.212 552.307 708.685 560.5 707.515C565.517 706.798 574.706 706.13 579.5 704.212C583.455 702.63 586.553 698.382 589 694.712C591.942 690.299 596.057 685.82 599.605 680.712C602.639 678.229 615.245 664.299 615 668.212C614.798 671.444 608.84 678.846 607 681.212C604.362 684.604 606 682.212 598 694.712C592.354 701.613 590 712.212 586.675 720.962C586.675 723.154 585.859 724.451 586 726.712C590.895 716.801 612.498 690.578 620 681.712C623.966 677.025 629.932 672.992 634.256 668.669C637.355 665.57 637.903 662.003 643.565 662.003L643.657 661.973C646.254 661.129 656.638 657.752 667.872 660.969L668.066 660.969C670.569 660.972 677.363 660.979 677 657.712C676.835 656.224 674 656.712 673.5 654.712C673.359 654.147 673.991 650.867 674.5 650.212C675.13 648.212 676.5 639.041 676.5 631.212C676.5 619.441 673.594 605.212 676 599.712C679.5 591.712 683.5 583.212 691.145 574.887C694.483 573.033 698.031 570.384 701 567.712C704.889 564.212 713.216 562.087 716 557.712C719.634 552.001 720 546.712 721.5 538.212C724 534.712 725.83 530.861 726.543 528.801C728.311 523.693 733.623 521.847 736.5 517.212C738.663 513.728 741.768 506.653 746 505.712C749.919 504.841 751.73 507.426 751 510.712C750.058 514.95 743.339 519.636 741 523.212C738.345 527.273 735.86 530.625 733.784 534.777C731.909 538.528 732.39 541.706 731.5 545.712C735 559.712 736.765 553.311 738 551.212C739.944 547.907 742.549 538.219 745.909 536.328C751.72 533.06 756.152 527.648 761.942 524.491C765.553 522.521 769.075 517.874 772.055 514.894C774.593 512.357 777.442 509.647 779.583 506.792C781.793 503.845 778.865 502.669 776.537 500.988C773.12 498.52 763.868 495.269 769.297 489.84C771.849 487.288 778.175 485.526 781.652 484.611C799.342 479.955 812.276 483.671 830.5 482.712C834.239 482.516 842.816 482.531 846.5 481.712C812.5 463.712 865 469.212 845.5 463.712C840 461.712 840.5 462.258 838.254 461.567C835.036 460.577 830.049 460.892 827.5 460.212C824.049 459.392 821.826 461.4 823.5 456.712C825.041 452.398 825 450.712 823.5 448.712C819.321 446.293 816.531 444.277 812.5 441.712C807.245 438.368 801.727 433.306 796.5 429.712C761.5 413.212 806.5 398.712 792.5 383.212C789.284 382.694 788 381.212 784 378.212C780 375.212 775.518 374.792 773.5 371.712C770.849 367.667 767.708 367.388 766 362.712C765.079 360.191 764.762 356.484 763.5 354.212C761.711 350.992 762.5 349.212 762.5 344.212C761 339.712 761.543 337.201 757.5 334.712C752.796 331.817 744.826 332.444 739.5 333.712C732.133 335.466 730.28 336.218 732.06 332.212C734.062 327.708 741.215 324.029 743.5 319.712C745.498 315.938 747.617 315.857 750 312.212C752.057 309.067 754.864 303.758 756.5 300.212C758.626 295.606 762.5 286.765 762.5 281.212C762.5 278.194 762.616 274.729 762.5 271.712C762.395 268.977 761.499 264.955 761 262.212C758.098 257.644 754.512 258.393 751.5 254.712C746.816 248.987 732.833 245.589 726 242.712C715.5 238.291 727.5 246.212 729.417 254.712C662 226.212 728.124 257.708 732.06 260.212C736.311 262.918 752.299 264.753 749.07 271.212C746.987 275.377 741.554 281.019 739 284.212C737.574 285.995 734.146 286.521 732.06 287.712C729.423 289.219 731.084 288.344 728.5 289.712C732.06 281.712 733.998 280.712 734.5 279.29C737 272.212 739.735 271.711 739.5 269.712C738.958 265.106 715.5 262.154 709.5 258.712C707.153 257.859 705.017 257.624 703 256.212C701.2 254.952 696.341 253.476 694.5 252.972C688.414 251.306 683.878 247.994 678 245.674C673.762 244.001 670.12 237.862 668 235.212C665.229 231.749 672.112 224.206 673 220.212C674.084 215.333 677.584 216.446 680 212.712C681.108 211 684.202 209.087 685.5 207.212C687.033 204.998 690.585 201.627 692.5 199.712C698.443 193.769 703.77 192.403 708 185.212C708.608 184.179 714.158 177.822 710.5 177.212C706.1 176.479 697.5 171.212 693.789 169.648C687 166.788 673.5 163.212 667.5 158.212C659 150.212 656.981 146.619 654.885 137.712C653.966 133.804 655.768 127.592 654.885 123.619C653.929 119.313 653.909 115.18 653.909 110.633C653.909 106.277 652.874 102.583 652.874 98.2777C652.874 96.5795 653.831 90.3853 652.644 89.1983C651.267 87.821 647.232 92.7764 644.599 89.4856C642.683 87.0906 634.5 93.2122 630 93.2122C621.5 92.7122 608.242 93.6843 602.5 87.7122C592.885 77.7122 592.825 68.6407 585 66.2122C568.71 61.1568 556.534 68.8431 539.5 68.2122C533.653 67.9957 525 66.2122 525.5 52.2122C525.786 44.2122 530.05 36.3649 528.694 31.619C527.562 27.658 507.134 29.8104 504.271 30.2399C496.117 31.463 488.532 34.5157 480.596 36.446C471.923 38.5558 464.623 37.221 456.921 33.1131C453.263 31.1625 446.332 24.1735 448 20.2123C449.556 16.5167 446.985 4.20069 443 1.21222C438.781 -1.95202 440.808 1.74146 436.119 4.72568C418.123 16.1776 404.742 27.9657 385.5 36.7123C377.816 40.2051 366.832 44.2938 362.5 36.7123C358.524 29.7549 368.587 11.8067 360.5 8.21228C354.904 5.72538 334.033 11.5786 329.12 14.0349C312 22.5947 299.82 39.1334 283.838 49.433C267.964 59.6627 254.396 73.0627 237.522 81.7279C231.804 84.6642 226.993 86.644 221 89.2123C216.208 91.2661 211.512 96.3477 208.675 100.806C206.729 103.863 211.523 107.684 209.5 110.212C208.675 110.712 210 114.212 207.5 116.212C205 117.212 199.861 116.023 196 117.712C189.112 120.726 185.344 116.844 185.344 122.068C185.344 127.826 184.89 135.348 188.39 140.212C190.89 143.687 195.622 142.8 198.5 142.238C202.52 141.453 203.605 140.91 207.683 138.871L208 138.712C229 129.212 211.727 138.435 209.192 142.238C206.245 146.658 196.54 153.917 191 153.712C182.652 153.403 178.698 144.501 171.5 140.712C166.212 137.929 155.979 130.777 153.5 138.212C149.213 151.073 147.067 180.92 130 184.712C123.673 186.118 116.298 177.212 110 177.212C107.051 177.212 101.686 177.019 99 178.212C94.7605 180.096 91.8511 184.334 88.1143 187.003C84.3657 189.68 79.4365 192.583 75.1848 194.473C72.3977 195.712 68.5 201.712 66 203.712C60.5 207.712 80.8002 219.513 83 221.712C90.0617 228.774 78.4921 230.785 73.4034 236.077C69.9441 239.675 66.1142 244.974 64.8412 249.811C63.6504 254.336 60.9111 260.312 62 265.212C63.5624 272.243 69.2821 277.624 72.8288 283.428C74.3907 285.984 78.0703 288.137 78.7476 291.186C79.1201 292.862 79.5 295.712 78.6902 296.932C76.7642 299.833 58.4284 312.559 70 314.212C78.732 315.46 87.0827 311.712 96 311.712H114.5C116.691 311.712 135.159 314.654 136 311.712C136.918 308.5 133 303.712 130.5 300.712C127 296.512 122.13 292.461 119.145 289.634C118.032 288.58 111.796 283.397 111.5 282.212C111.093 280.583 116.422 284.638 118 285.212C120.251 286.031 124.814 290.643 126.85 292.453C129.608 294.905 132.695 298.147 136 299.712C139.667 301.449 144.239 305.951 147 308.712C150.364 312.076 153 313.212 156.5 318.212C159 321.784 160.745 326.548 160.5 330.712C160.313 333.891 147.759 334.111 145.521 334.111C138.902 334.111 135.778 334.961 129.512 336.215C126.421 336.833 123.729 335.372 120.5 335.712C116.41 336.143 112.611 337.173 108.5 337.712C104.621 338.221 99.5 338.489 95.5 339.212C93 339.664 82.1288 342.961 81 343.212C78.8931 343.681 73.9986 345.626 72.5 347.212C70.2668 349.577 71.5646 355.726 71.5646 358.936C71.5646 363.133 82.0506 374.872 78.5 377.712C72.5387 382.481 67.4655 381.279 60.5 384.212C50.3556 388.484 28.1704 387.186 17.5481 389.162C11.5363 390.281 -8.28678 389.96 3.87155 399.908C12.8194 407.229 24.3613 411.069 34.0978 417.435C39.1362 420.729 51 424.212 56 431.712C59.5539 438.032 55.0463 448.298 48 452.212C36.1067 458.82 49.5 454.327 53.9805 454.327C57.5 454.327 62.5 453.12 62.5 457.212C62.5 460.348 58.5 462.914 58.5 466.212C58.5 477.475 65 483.986 73.4034 491.909C96 513.212 111 523.141 111 547.712C111 552.755 112.826 564.305 105.5 564.712C101.26 564.948 98.5147 566.842 94.263 566.842C89.8446 566.842 83.7257 568.505 79.5 569.712C73.9271 571.305 83.5264 574.14 84.7814 574.887C89.1157 577.467 92.084 579.612 93.8033 584.426C96.4749 591.907 97 590.712 93.8033 598.212C91.5 602.212 78.8165 619.192 85.0687 621.146C93.6584 623.83 102.46 625.586 111.445 627.639C118.695 629.297 127.163 628.795 134.5 629.712C140.423 630.453 146.287 629.808 152 631.712C156.093 633.076 164.364 637.576 167.5 640.712C170.22 643.433 168.914 649.084 170.346 652.234C171.88 655.609 170.863 661.502 170.863 665.106C170.863 668.732 172.5 668.639 172.5 672.212C172.5 675.975 171.79 678.162 175.661 679.453C180.155 680.951 184.304 685.084 188.964 686.311C193.977 687.63 198.957 687.948 203.962 689.126C209.582 690.449 214.21 693.236 219.995 694.126C229.5 693.212 236.858 696.712 246 696.712C255.478 696.712 264.792 701.164 273.724 704.412C278.965 706.317 278.956 709.131 281.539 713.491Z" fill="#3382B7"/>
<path d="M281.539 713.491C283.682 717.107 278.803 723.79 277.402 727.168C277.402 732.705 288.861 733.712 294 733.712C300.057 733.712 319.173 736.97 320.788 744.235C321.248 746.305 314.933 748.212 316 748.212C320.648 748.212 326.958 749.97 331.533 749.119C342.034 747.166 353.57 746.82 364.231 746.82C370.328 746.82 374.105 744.666 380 743.212C386.004 741.732 394.812 741.456 400.72 739.637C409.18 737.034 417.163 735.896 426 735.712C436.552 735.492 448.5 728.468 459 728.212C479.5 727.712 506.296 728.647 524 717.712C529.766 714.151 533.543 713.173 536 712.712C544 711.212 552.307 708.685 560.5 707.515C565.517 706.798 574.706 706.13 579.5 704.212C583.455 702.63 586.553 698.382 589 694.712C591.942 690.299 596.057 685.82 599.605 680.712C602.639 678.229 615.245 664.299 615 668.212C614.798 671.444 608.84 678.846 607 681.212C604.362 684.604 606 682.212 598 694.712C592.354 701.613 590 712.212 586.675 720.962C586.675 723.154 585.859 724.451 586 726.712C590.895 716.801 612.498 690.578 620 681.712C623.966 677.025 629.932 672.992 634.256 668.669C637.355 665.57 637.903 662.003 643.565 662.003L643.657 661.973C646.254 661.129 656.638 657.752 667.872 660.969L668.066 660.969C670.569 660.972 677.363 660.979 677 657.712C676.835 656.224 674 656.712 673.5 654.712C673.359 654.147 673.991 650.867 674.5 650.212C675.13 648.212 676.5 639.041 676.5 631.212C676.5 619.441 673.594 605.212 676 599.712C679.5 591.712 683.5 583.212 691.145 574.887C694.483 573.033 698.031 570.384 701 567.712C704.889 564.212 713.216 562.087 716 557.712C719.634 552.001 720 546.712 721.5 538.212C724 534.712 725.83 530.861 726.543 528.801C728.311 523.693 733.623 521.847 736.5 517.212C738.663 513.728 741.768 506.653 746 505.712C749.919 504.841 751.73 507.426 751 510.712C750.058 514.95 743.339 519.636 741 523.212C738.345 527.273 735.86 530.625 733.784 534.777C731.909 538.528 732.39 541.706 731.5 545.712C735 559.712 736.765 553.311 738 551.212C739.944 547.907 742.549 538.219 745.909 536.328C751.72 533.06 756.152 527.648 761.942 524.491C765.553 522.521 769.075 517.874 772.055 514.894C774.593 512.357 777.442 509.647 779.583 506.792C781.793 503.845 778.865 502.669 776.537 500.988C773.12 498.52 763.868 495.269 769.297 489.84C771.849 487.288 778.175 485.526 781.652 484.611C799.342 479.955 812.276 483.671 830.5 482.712C834.239 482.516 842.816 482.531 846.5 481.712C812.5 463.712 865 469.212 845.5 463.712C840 461.712 840.5 462.258 838.254 461.567C835.036 460.577 830.049 460.892 827.5 460.212C824.049 459.392 821.826 461.4 823.5 456.712C825.041 452.398 825 450.712 823.5 448.712C819.321 446.293 816.531 444.277 812.5 441.712C807.245 438.368 801.727 433.306 796.5 429.712C761.5 413.212 806.5 398.712 792.5 383.212C789.284 382.694 788 381.212 784 378.212C780 375.212 775.518 374.792 773.5 371.712C770.849 367.667 767.708 367.388 766 362.712C765.079 360.191 764.762 356.484 763.5 354.212C761.711 350.992 762.5 349.212 762.5 344.212C761 339.712 761.543 337.201 757.5 334.712C752.796 331.817 744.826 332.444 739.5 333.712C732.133 335.466 730.28 336.218 732.06 332.212C734.062 327.708 741.215 324.029 743.5 319.712C745.498 315.938 747.617 315.857 750 312.212C752.057 309.067 754.864 303.758 756.5 300.212C758.626 295.606 762.5 286.765 762.5 281.212C762.5 278.194 762.616 274.729 762.5 271.712C762.395 268.977 761.499 264.955 761 262.212C758.098 257.644 754.512 258.393 751.5 254.712C746.816 248.987 732.833 245.589 726 242.712C715.5 238.291 727.5 246.212 729.417 254.712C662 226.212 728.124 257.708 732.06 260.212C736.311 262.918 752.299 264.753 749.07 271.212C746.987 275.377 741.554 281.019 739 284.212C737.574 285.995 734.146 286.521 732.06 287.712C729.423 289.219 731.084 288.344 728.5 289.712C732.06 281.712 733.998 280.712 734.5 279.29C737 272.212 739.735 271.711 739.5 269.712C738.958 265.106 715.5 262.154 709.5 258.712C707.153 257.859 705.017 257.624 703 256.212C701.2 254.952 696.341 253.476 694.5 252.972C688.414 251.306 683.878 247.994 678 245.674C673.762 244.001 670.12 237.862 668 235.212C665.229 231.749 672.112 224.206 673 220.212C674.084 215.333 677.584 216.446 680 212.712C681.108 211 684.202 209.087 685.5 207.212C687.033 204.998 690.585 201.627 692.5 199.712C698.443 193.769 703.77 192.403 708 185.212C708.608 184.179 714.158 177.822 710.5 177.212C706.1 176.479 697.5 171.212 693.789 169.648C687 166.788 673.5 163.212 667.5 158.212C659 150.212 656.981 146.619 654.885 137.712C653.966 133.804 655.768 127.592 654.885 123.619C653.929 119.313 653.909 115.18 653.909 110.633C653.909 106.277 652.874 102.583 652.874 98.2777C652.874 96.5795 653.831 90.3853 652.644 89.1983C651.267 87.821 647.232 92.7764 644.599 89.4856C642.683 87.0906 634.5 93.2122 630 93.2122C621.5 92.7122 608.242 93.6843 602.5 87.7122C592.885 77.7122 592.825 68.6407 585 66.2122C568.71 61.1568 556.534 68.8431 539.5 68.2122C533.653 67.9957 525 66.2122 525.5 52.2122C525.786 44.2122 530.05 36.3649 528.694 31.619C527.562 27.658 507.134 29.8104 504.271 30.2399C496.117 31.463 488.532 34.5157 480.596 36.446C471.923 38.5558 464.623 37.221 456.921 33.1131C453.263 31.1625 446.332 24.1735 448 20.2123C449.556 16.5167 446.985 4.20069 443 1.21222C438.781 -1.95202 440.808 1.74146 436.119 4.72568C418.123 16.1776 404.742 27.9657 385.5 36.7123C377.816 40.2051 366.832 44.2938 362.5 36.7123C358.524 29.7549 368.587 11.8067 360.5 8.21228C354.904 5.72538 334.033 11.5786 329.12 14.0349C312 22.5947 299.82 39.1334 283.838 49.433C267.964 59.6627 254.396 73.0627 237.522 81.7279C231.804 84.6642 226.993 86.644 221 89.2123C216.208 91.2661 211.512 96.3477 208.675 100.806C206.729 103.863 211.523 107.684 209.5 110.212C208.675 110.712 210 114.212 207.5 116.212C205 117.212 199.861 116.023 196 117.712C189.112 120.726 185.344 116.844 185.344 122.068C185.344 127.826 184.89 135.348 188.39 140.212C190.89 143.687 195.622 142.8 198.5 142.238C202.52 141.453 203.605 140.91 207.683 138.871L208 138.712C229 129.212 211.727 138.435 209.192 142.238C206.245 146.658 196.54 153.917 191 153.712C182.652 153.403 178.698 144.501 171.5 140.712C166.212 137.929 155.979 130.777 153.5 138.212C149.213 151.073 147.067 180.92 130 184.712C123.673 186.118 116.298 177.212 110 177.212C107.051 177.212 101.686 177.019 99 178.212C94.7605 180.096 91.8511 184.334 88.1143 187.003C84.3657 189.68 79.4365 192.583 75.1848 194.473C72.3977 195.712 68.5 201.712 66 203.712C60.5 207.712 80.8002 219.513 83 221.712C90.0617 228.774 78.4921 230.785 73.4034 236.077C69.9441 239.675 66.1142 244.974 64.8412 249.811C63.6504 254.336 60.9111 260.312 62 265.212C63.5624 272.243 69.2821 277.624 72.8288 283.428C74.3907 285.984 78.0703 288.137 78.7476 291.186C79.1201 292.862 79.5 295.712 78.6902 296.932C76.7642 299.833 58.4284 312.559 70 314.212C78.732 315.46 87.0827 311.712 96 311.712H114.5C116.691 311.712 135.159 314.654 136 311.712C136.918 308.5 133 303.712 130.5 300.712C127 296.512 122.13 292.461 119.145 289.634C118.032 288.58 111.796 283.397 111.5 282.212C111.093 280.583 116.422 284.638 118 285.212C120.251 286.031 124.814 290.643 126.85 292.453C129.608 294.905 132.695 298.147 136 299.712C139.667 301.449 144.239 305.951 147 308.712C150.364 312.076 153 313.212 156.5 318.212C159 321.784 160.745 326.548 160.5 330.712C160.313 333.891 147.759 334.111 145.521 334.111C138.902 334.111 135.778 334.961 129.512 336.215C126.421 336.833 123.729 335.372 120.5 335.712C116.41 336.143 112.611 337.173 108.5 337.712C104.621 338.221 99.5 338.489 95.5 339.212C93 339.664 82.1288 342.961 81 343.212C78.8931 343.681 73.9986 345.626 72.5 347.212C70.2668 349.577 71.5646 355.726 71.5646 358.936C71.5646 363.133 82.0506 374.872 78.5 377.712C72.5387 382.481 67.4655 381.279 60.5 384.212C50.3556 388.484 28.1704 387.186 17.5481 389.162C11.5363 390.281 -8.28678 389.96 3.87155 399.908C12.8194 407.229 24.3613 411.069 34.0978 417.435C39.1362 420.729 51 424.212 56 431.712C59.5539 438.032 55.0463 448.298 48 452.212C36.1067 458.82 49.5 454.327 53.9805 454.327C57.5 454.327 62.5 453.12 62.5 457.212C62.5 460.348 58.5 462.914 58.5 466.212C58.5 477.475 65 483.986 73.4034 491.909C96 513.212 111 523.141 111 547.712C111 552.755 112.826 564.305 105.5 564.712C101.26 564.948 98.5147 566.842 94.263 566.842C89.8446 566.842 83.7257 568.505 79.5 569.712C73.9271 571.305 83.5264 574.14 84.7814 574.887C89.1157 577.467 92.084 579.612 93.8033 584.426C96.4749 591.907 97 590.712 93.8033 598.212C91.5 602.212 78.8165 619.192 85.0687 621.146C93.6584 623.83 102.46 625.586 111.445 627.639C118.695 629.297 127.163 628.795 134.5 629.712C140.423 630.453 146.287 629.808 152 631.712C156.093 633.076 164.364 637.576 167.5 640.712C170.22 643.433 168.914 649.084 170.346 652.234C171.88 655.609 170.863 661.502 170.863 665.106C170.863 668.732 172.5 668.639 172.5 672.212C172.5 675.975 171.79 678.162 175.661 679.453C180.155 680.951 184.304 685.084 188.964 686.311C193.977 687.63 198.957 687.948 203.962 689.126C209.582 690.449 214.21 693.236 219.995 694.126C229.5 693.212 236.858 696.712 246 696.712C255.478 696.712 264.792 701.164 273.724 704.412C278.965 706.317 278.956 709.131 281.539 713.491Z" fill="url(#paint0_radial)" style="mix-blend-mode:hard-light"/>
<rect x="368.199" y="462.862" width="298.204" height="47.4693" rx="23.7346" transform="rotate(-45 368.199 462.862)" fill="white"/>
<rect x="328.865" y="356.142" width="150.492" height="49.3071" rx="24.6535" transform="rotate(45 328.865 356.142)" fill="white"/>
</g>
<defs>
<radialGradient id="paint0_radial" cx="0" cy="0" r="1" gradientUnits="userSpaceOnUse" gradientTransform="translate(919.5 -69.5) rotate(134.194) scale(854.977 891.543)">
<stop stop-color="white"/>
<stop offset="1" stop-color="#3382B7"/>
</radialGradient>
</defs>
</svg>
